<?xml version="1.0" encoding="UTF-8" standalone="no"?>
<!-- Created with Inkscape (http://www.inkscape.org/) -->

<svg
   width="482.37283mm"
   height="131.67249mm"
   viewBox="0 0 482.37283 131.67249"
   version="1.1"
   id="svg10645"
   inkscape:version="1.4.1-rc (d9e8dc1fe0, 2025-03-10)"
   sodipodi:docname="SECAI-WIDE.svg"
   inkscape:export-filename="/home/markus/Documents/Projects/2022-2027 SECAI/project-2022-secai/logo/build/secai-logo-wide-transparent-7000.png"
   inkscape:export-xdpi="368.59"
   inkscape:export-ydpi="368.59"
   xmlns:inkscape="http://www.inkscape.org/namespaces/inkscape"
   xmlns:sodipodi="http://sodipodi.sourceforge.net/DTD/sodipodi-0.dtd"
   xmlns:xlink="http://www.w3.org/1999/xlink"
   xmlns="http://www.w3.org/2000/svg"
   xmlns:svg="http://www.w3.org/2000/svg"
   xmlns:rdf="http://www.w3.org/1999/02/22-rdf-syntax-ns#"
   xmlns:cc="http://creativecommons.org/ns#"
   xmlns:dc="http://purl.org/dc/elements/1.1/">
  <title
     id="title9545">SECAI -- School of Embedded Composite AI</title>
  <defs
     id="defs10639">
    <radialGradient
       inkscape:collect="always"
       xlink:href="#linearGradient10576"
       id="radialGradient10578"
       cx="198.3575"
       cy="902.09772"
       fx="198.3575"
       fy="902.09772"
       r="29.668104"
       gradientTransform="matrix(1.2664228,-0.55407157,0.70360576,1.6082081,-628.69707,-1213.766)"
       gradientUnits="userSpaceOnUse" />
    <linearGradient
       inkscape:collect="always"
       id="linearGradient10576">
      <stop
         style="stop-color:#305886;stop-opacity:1"
         offset="0"
         id="stop10572" />
      <stop
         id="stop10580"
         offset="0.33090553"
         style="stop-color:#4eaec8;stop-opacity:1" />
      <stop
         style="stop-color:#00aaaf;stop-opacity:1"
         offset="0.40373671"
         id="stop10582" />
      <stop
         id="stop10584"
         offset="0.57720095"
         style="stop-color:#00aaaf;stop-opacity:1" />
      <stop
         style="stop-color:#33b887;stop-opacity:1"
         offset="0.78802538"
         id="stop10586" />
      <stop
         style="stop-color:#a6d71c;stop-opacity:1"
         offset="1"
         id="stop10574" />
    </linearGradient>
  </defs>
  <sodipodi:namedview
     id="base"
     pagecolor="#ffffff"
     bordercolor="#666666"
     borderopacity="1.0"
     inkscape:pageopacity="0.0"
     inkscape:pageshadow="2"
     inkscape:zoom="0.24748737"
     inkscape:cx="1121.2693"
     inkscape:cy="246.47722"
     inkscape:document-units="mm"
     inkscape:current-layer="layer1"
     showgrid="false"
     fit-margin-top="0"
     fit-margin-left="0"
     fit-margin-right="0"
     fit-margin-bottom="0"
     inkscape:window-width="1918"
     inkscape:window-height="1127"
     inkscape:window-x="0"
     inkscape:window-y="0"
     inkscape:window-maximized="1"
     inkscape:pagecheckerboard="0"
     inkscape:snap-text-baseline="false"
     inkscape:showpageshadow="2"
     inkscape:deskcolor="#d1d1d1" />
  <metadata
     id="metadata10642">
    <rdf:RDF>
      <cc:Work
         rdf:about="">
        <dc:format>image/svg+xml</dc:format>
        <dc:type
           rdf:resource="http://purl.org/dc/dcmitype/StillImage" />
        <dc:title>SECAI -- School of Embedded Composite AI</dc:title>
        <dc:creator>
          <cc:Agent>
            <dc:title>Markus Krötzsch</dc:title>
          </cc:Agent>
        </dc:creator>
      </cc:Work>
    </rdf:RDF>
  </metadata>
  <g
     inkscape:label="Layer 1"
     inkscape:groupmode="layer"
     id="layer1"
     transform="translate(-194.495,-37.630836)">
    <path
       id="path10556"
       style="opacity:1;fill:url(#radialGradient10578);fill-opacity:1;stroke:none;stroke-width:0.0206107;stroke-miterlimit:4;stroke-dasharray:none;stroke-dashoffset:0;stroke-opacity:1;paint-order:markers fill stroke"
       d="m 275.59357,88.751357 a 0.19280115,0.19280115 0 0 1 -0.19279,0.1928 0.19280115,0.19280115 0 0 1 -0.1928,-0.1928 0.19280115,0.19280115 0 0 1 0.1928,-0.19279 0.19280115,0.19280115 0 0 1 0.19279,0.19279 z m 0.28232,-4.68229 a 0.475117,0.475117 0 0 1 -0.47513,0.47512 0.475117,0.475117 0 0 1 -0.47512,-0.47512 0.475117,0.475117 0 0 1 0.47512,-0.4751 0.475117,0.475117 0 0 1 0.47513,0.4751 z m -0.27543,-4.68229 a 0.1996868,0.19968678 0 0 1 -0.1997,0.19969 0.1996868,0.19968678 0 0 1 -0.19967,-0.19969 0.1996868,0.19968678 0 0 1 0.19967,-0.19968 0.1996868,0.19968678 0 0 1 0.1997,0.19968 z m -4.68921,14.04687 a 0.19280115,0.19280115 0 0 1 -0.1928,0.1928 0.19280115,0.19280115 0 0 1 -0.19279,-0.1928 0.19280115,0.19280115 0 0 1 0.19279,-0.19279 0.19280115,0.19280115 0 0 1 0.1928,0.19279 z m 1.59063,-4.68229 a 1.7834107,1.7834107 0 0 1 -1.78343,1.78341 1.7834107,1.7834107 0 0 1 -1.7834,-1.78341 1.7834107,1.7834107 0 0 1 1.7834,-1.78339 1.7834107,1.7834107 0 0 1 1.78343,1.78339 z m 0.97777,-4.68229 a 2.7611877,2.7611877 0 0 1 -2.76121,2.76118 2.7611877,2.7611877 0 0 1 -2.76118,-2.76118 2.7611877,2.7611877 0 0 1 2.76118,-2.76117 2.7611877,2.7611877 0 0 1 2.76121,2.76117 z m -0.95023,-4.68229 a 1.8109537,1.8109537 0 0 1 -1.81098,1.81095 1.8109537,1.8109537 0 0 1 -1.81094,-1.81095 1.8109537,1.8109537 0 0 1 1.81094,-1.81094 1.8109537,1.8109537 0 0 1 1.81098,1.81094 z m -1.60439,-4.68229 a 0.20657266,0.20657266 0 0 1 -0.20659,0.20657 0.20657266,0.20657266 0 0 1 -0.20656,-0.20657 0.20657266,0.20657266 0 0 1 0.20656,-0.20657 0.20657266,0.20657266 0 0 1 0.20659,0.20657 z m -4.41378,18.72916 a 0.475117,0.475117 0 0 1 -0.47511,0.47512 0.475117,0.475117 0 0 1 -0.47512,-0.47512 0.475117,0.475117 0 0 1 0.47512,-0.47511 0.475117,0.475117 0 0 1 0.47511,0.47511 z m 2.27919,-4.6823 a 2.7543024,2.7543024 0 0 1 -2.75431,2.7543 2.7543024,2.7543024 0 0 1 -2.7543,-2.7543 2.7543024,2.7543024 0 0 1 2.7543,-2.75428 2.7543024,2.7543024 0 0 1 2.75431,2.75428 z m 0.62661,-4.68228 a 3.3809059,3.3809059 0 0 1 -3.38093,3.3809 3.3809059,3.3809059 0 0 1 -3.3809,-3.3809 3.3809059,3.3809059 0 0 1 3.3809,-3.38087 3.3809059,3.3809059 0 0 1 3.38093,3.38087 z m -0.59219,-4.6823 a 2.7887308,2.7887308 0 0 1 -2.78874,2.78873 2.7887308,2.7887308 0 0 1 -2.78873,-2.78873 2.7887308,2.7887308 0 0 1 2.78873,-2.78871 2.7887308,2.7887308 0 0 1 2.78874,2.78871 z m -2.28607,-4.68227 a 0.50266005,0.50266005 0 0 1 -0.50265,0.50267 0.50266005,0.50266005 0 0 1 -0.50266,-0.50267 0.50266005,0.50266005 0 0 1 0.50266,-0.50265 0.50266005,0.50266005 0 0 1 0.50265,0.50265 z m -4.99219,18.72915 a 0.19280115,0.19280115 0 0 1 -0.19278,0.1928 0.19280115,0.19280115 0 0 1 -0.19281,-0.1928 0.19280115,0.19280115 0 0 1 0.19281,-0.19279 0.19280115,0.19280115 0 0 1 0.19278,0.19279 z m 1.61129,-4.68228 a 1.8040681,1.8040681 0 0 1 -1.80407,1.80406 1.8040681,1.8040681 0 0 1 -1.80407,-1.80406 1.8040681,1.8040681 0 0 1 1.80407,-1.80406 1.8040681,1.8040681 0 0 1 1.80407,1.80406 z m 0.98465,-4.68231 a 2.7887308,2.7887308 0 0 1 -2.78875,2.78872 2.7887308,2.7887308 0 0 1 -2.78872,-2.78872 2.7887308,2.7887308 0 0 1 2.78872,-2.78871 2.7887308,2.7887308 0 0 1 2.78875,2.78871 z m -0.9571,-4.68228 a 1.8316111,1.8316111 0 0 1 -1.83162,1.83161 1.8316111,1.8316111 0 0 1 -1.83161,-1.83161 1.8316111,1.8316111 0 0 1 1.83161,-1.83159 1.8316111,1.8316111 0 0 1 1.83162,1.83159 z m -1.61817,-4.68228 a 0.21345852,0.21345852 0 0 1 -0.21346,0.21345 0.21345852,0.21345852 0 0 1 -0.21345,-0.21345 0.21345852,0.21345852 0 0 1 0.21345,-0.21346 0.21345852,0.21345852 0 0 1 0.21346,0.21346 z m -4.8889,18.72915 a 0.00688562,0.00688562 0 0 1 -0.007,0.007 0.00688562,0.00688562 0 0 1 -0.007,-0.007 0.00688562,0.00688562 0 0 1 0.007,-0.007 0.00688562,0.00688562 0 0 1 0.007,0.007 z m 0.1997,-4.6823 a 0.20657266,0.20657266 0 0 1 -0.20659,0.20658 0.20657266,0.20657266 0 0 1 -0.20657,-0.20658 0.20657266,0.20657266 0 0 1 0.20657,-0.20656 0.20657266,0.20657266 0 0 1 0.20659,0.20656 z m 0.29609,-4.68227 a 0.50266005,0.50266005 0 0 1 -0.50266,0.50266 0.50266005,0.50266005 0 0 1 -0.50267,-0.50266 0.50266005,0.50266005 0 0 1 0.50267,-0.50265 0.50266005,0.50266005 0 0 1 0.50266,0.50265 z m -0.28921,-4.6823 a 0.21345852,0.21345852 0 0 1 -0.21347,0.21346 0.21345852,0.21345852 0 0 1 -0.21345,-0.21346 0.21345852,0.21345852 0 0 1 0.21345,-0.21345 0.21345852,0.21345852 0 0 1 0.21347,0.21345 z m -0.19969,-4.68228 a 0.01377153,0.01377153 0 0 1 -0.0138,0.0138 0.01377153,0.01377153 0 0 1 -0.0138,-0.0138 0.01377153,0.01377153 0 0 1 0.0138,-0.0137 0.01377153,0.01377153 0 0 1 0.0138,0.0137 z m 13.87307,68.567003 a 0.0770365,0.0770365 0 0 1 -0.077,0.077 0.0770365,0.0770365 0 0 1 -0.077,-0.077 0.0770365,0.0770365 0 0 1 0.077,-0.077 0.0770365,0.0770365 0 0 1 0.077,0.077 z m -51.3724,-54.538963 a 0.06419708,0.06419708 0 0 1 0.0643,-0.0643 0.06419708,0.06419708 0 0 1 0.0643,0.0643 0.06419708,0.06419708 0 0 1 -0.0643,0.0643 0.06419708,0.06419708 0 0 1 -0.0643,-0.0643 z m -0.39801,4.67719 a 0.46221901,0.46221901 0 0 1 0.46222,-0.46221 0.46221901,0.46221901 0 0 1 0.46221,0.46221 0.46221901,0.46221901 0 0 1 -0.46221,0.46222 0.46221901,0.46221901 0 0 1 -0.46222,-0.46222 z m -0.30815,4.67717 a 0.77036504,0.77036504 0 0 1 0.77038,-0.7703 0.77036504,0.77036504 0 0 1 0.77037,0.7703 0.77036504,0.77036504 0 0 1 -0.77037,0.7704 0.77036504,0.77036504 0 0 1 -0.77038,-0.7704 z m -0.16691,4.677203 a 0.93727746,0.93727746 0 0 1 0.93728,-0.9372 0.93727746,0.93727746 0 0 1 0.93727,0.9372 0.93727746,0.93727746 0 0 1 -0.93727,0.9373 0.93727746,0.93727746 0 0 1 -0.93728,-0.9373 z m -0.0128,4.6773 a 0.95011687,0.95011687 0 0 1 0.95011,-0.9502 0.95011687,0.95011687 0 0 1 0.95012,0.9502 0.95011687,0.95011687 0 0 1 -0.95012,0.9501 0.95011687,0.95011687 0 0 1 -0.95011,-0.9501 z m 0.12838,4.6772 a 0.82172273,0.82172273 0 0 1 0.82173,-0.8218 0.82172273,0.82172273 0 0 1 0.82172,0.8218 0.82172273,0.82172273 0 0 1 -0.82172,0.8217 0.82172273,0.82172273 0 0 1 -0.82173,-0.8217 z m 0.30815,4.6772 a 0.51357673,0.51357673 0 0 1 0.51358,-0.5136 0.51357673,0.51357673 0 0 1 0.51358,0.5136 0.51357673,0.51357673 0 0 1 -0.51358,0.5136 0.51357673,0.51357673 0 0 1 -0.51358,-0.5136 z m 0.43655,4.6772 a 0.0770365,0.0770365 0 0 1 0.077,-0.077 0.0770365,0.0770365 0 0 1 0.077,0.077 0.0770365,0.0770365 0 0 1 -0.077,0.077 0.0770365,0.0770365 0 0 1 -0.077,-0.077 z m 4.74148,-42.094913 a 0.01283943,0.01283943 0 0 1 0.0126,-0.0126 0.01283943,0.01283943 0 0 1 0.0126,0.0126 0.01283943,0.01283943 0 0 1 -0.0126,0.0126 0.01283943,0.01283943 0 0 1 -0.0126,-0.0126 z m -0.46229,4.67722 a 0.47505845,0.47505845 0 0 1 0.47506,-0.47506 0.47505845,0.47505845 0 0 1 0.47506,0.47506 0.47505845,0.47505845 0 0 1 -0.47506,0.47506 0.47505845,0.47505845 0 0 1 -0.47506,-0.47506 z m -0.51358,4.6772 a 0.98863515,0.98863515 0 0 1 0.98864,-0.98864 0.98863515,0.98863515 0 0 1 0.98864,0.98864 0.98863515,0.98863515 0 0 1 -0.98864,0.98864 0.98863515,0.98863515 0 0 1 -0.98864,-0.98864 z m -0.14123,4.67722 a 1.1298687,1.1298687 0 0 1 1.12987,-1.12987 1.1298687,1.1298687 0 0 1 1.12987,1.12987 1.1298687,1.1298687 0 0 1 -1.12987,1.12987 1.1298687,1.1298687 0 0 1 -1.12987,-1.12987 z m -0.0257,4.67717 a 1.1555476,1.1555476 0 0 1 1.15555,-1.1555 1.1555476,1.1555476 0 0 1 1.15556,1.1555 1.1555476,1.1555476 0 0 1 -1.15556,1.1556 1.1555476,1.1555476 0 0 1 -1.15555,-1.1556 z m -0.0257,4.677203 a 1.1812264,1.1812264 0 0 1 1.18122,-1.1812 1.1812264,1.1812264 0 0 1 1.18122,1.1812 1.1812264,1.1812264 0 0 1 -1.18122,1.1813 1.1812264,1.1812264 0 0 1 -1.18122,-1.1813 z m -0.0128,4.6773 a 1.1940658,1.1940658 0 0 1 1.19406,-1.1941 1.1940658,1.1940658 0 0 1 1.19407,1.1941 1.1940658,1.1940658 0 0 1 -1.19407,1.194 1.1940658,1.1940658 0 0 1 -1.19406,-1.194 z m -0.0129,4.6772 a 1.2069052,1.2069052 0 0 1 1.20691,-1.2069 1.2069052,1.2069052 0 0 1 1.20691,1.2069 1.2069052,1.2069052 0 0 1 -1.20691,1.2069 1.2069052,1.2069052 0 0 1 -1.20691,-1.2069 z m 0,4.6772 a 1.2069052,1.2069052 0 0 1 1.20691,-1.2069 1.2069052,1.2069052 0 0 1 1.20691,1.2069 1.2069052,1.2069052 0 0 1 -1.20691,1.2069 1.2069052,1.2069052 0 0 1 -1.20691,-1.2069 z m 0.0899,4.6772 a 1.1170293,1.1170293 0 0 1 1.11704,-1.117 1.1170293,1.1170293 0 0 1 1.11702,1.117 1.1170293,1.1170293 0 0 1 -1.11702,1.117 1.1170293,1.1170293 0 0 1 -1.11704,-1.117 z m 0.52641,4.6772 a 0.59061321,0.59061321 0 0 1 0.59063,-0.5906 0.59061321,0.59061321 0 0 1 0.59061,0.5906 0.59061321,0.59061321 0 0 1 -0.59061,0.5906 0.59061321,0.59061321 0 0 1 -0.59063,-0.5906 z m 0.56497,4.6772 a 0.02567884,0.02567884 0 0 1 0.0256,-0.026 0.02567884,0.02567884 0 0 1 0.0256,0.026 0.02567884,0.02567884 0 0 1 -0.0256,0.026 0.02567884,0.02567884 0 0 1 -0.0256,-0.026 z m 4.60014,-56.126493 a 0.10271535,0.10271535 0 0 1 0.10276,-0.10276 0.10271535,0.10271535 0 0 1 0.10276,0.10276 0.10271535,0.10271535 0 0 1 -0.10276,0.10276 0.10271535,0.10271535 0 0 1 -0.10276,-0.10276 z m -0.79603,4.67719 a 0.89875924,0.89875924 0 0 1 0.89876,-0.89876 0.89875924,0.89875924 0 0 1 0.89876,0.89876 0.89875924,0.89875924 0 0 1 -0.89876,0.89876 0.89875924,0.89875924 0 0 1 -0.89876,-0.89876 z m -0.37234,4.67722 a 1.2711023,1.2711023 0 0 1 1.2711,-1.27111 1.2711023,1.2711023 0 0 1 1.2711,1.27111 1.2711023,1.2711023 0 0 1 -1.2711,1.27109 1.2711023,1.2711023 0 0 1 -1.2711,-1.27109 z m -0.0514,4.67721 a 1.32246,1.32246 0 0 1 1.32247,-1.32247 1.32246,1.32246 0 0 1 1.32246,1.32247 1.32246,1.32246 0 0 1 -1.32246,1.32246 1.32246,1.32246 0 0 1 -1.32247,-1.32246 z m -0.0514,4.67721 a 1.3738177,1.3738177 0 0 1 1.37382,-1.37382 1.3738177,1.3738177 0 0 1 1.37382,1.37382 1.3738177,1.3738177 0 0 1 -1.37382,1.37381 1.3738177,1.3738177 0 0 1 -1.37382,-1.37381 z m -0.0385,4.67716 a 1.412336,1.412336 0 0 1 1.41233,-1.4123 1.412336,1.412336 0 0 1 1.41233,1.4123 1.412336,1.412336 0 0 1 -1.41233,1.4124 1.412336,1.412336 0 0 1 -1.41233,-1.4124 z m -0.0257,4.677203 a 1.4380148,1.4380148 0 0 1 1.43801,-1.438 1.4380148,1.4380148 0 0 1 1.43802,1.438 1.4380148,1.4380148 0 0 1 -1.43802,1.4381 1.4380148,1.4380148 0 0 1 -1.43801,-1.4381 z m -0.0257,4.6773 a 1.4636936,1.4636936 0 0 1 1.4637,-1.4637 1.4636936,1.4636936 0 0 1 1.4637,1.4637 1.4636936,1.4636936 0 0 1 -1.4637,1.4636 1.4636936,1.4636936 0 0 1 -1.4637,-1.4636 z m -0.0128,4.6772 a 1.476533,1.476533 0 0 1 1.47653,-1.4766 1.476533,1.476533 0 0 1 1.47654,1.4766 1.476533,1.476533 0 0 1 -1.47654,1.4765 1.476533,1.476533 0 0 1 -1.47653,-1.4765 z m -0.0128,4.6772 a 1.4893724,1.4893724 0 0 1 1.48938,-1.4894 1.4893724,1.4893724 0 0 1 1.48938,1.4894 1.4893724,1.4893724 0 0 1 -1.48938,1.4893 1.4893724,1.4893724 0 0 1 -1.48938,-1.4893 z m 0.0128,4.6772 a 1.476533,1.476533 0 0 1 1.47653,-1.4765 1.476533,1.476533 0 0 1 1.47654,1.4765 1.476533,1.476533 0 0 1 -1.47654,1.4765 1.476533,1.476533 0 0 1 -1.47653,-1.4765 z m 0.0128,4.6772 a 1.4636936,1.4636936 0 0 1 1.4637,-1.4637 1.4636936,1.4636936 0 0 1 1.4637,1.4637 1.4636936,1.4636936 0 0 1 -1.4637,1.4637 1.4636936,1.4636936 0 0 1 -1.4637,-1.4637 z m 0.35951,4.6772 a 1.1041899,1.1041899 0 0 1 1.10419,-1.1042 1.1041899,1.1041899 0 0 1 1.10419,1.1042 1.1041899,1.1041899 0 0 1 -1.10419,1.1042 1.1041899,1.1041899 0 0 1 -1.10419,-1.1042 z m 0.95013,4.6772 a 0.15407301,0.15407301 0 0 1 0.15407,-0.1541 0.15407301,0.15407301 0 0 1 0.15407,0.1541 0.15407301,0.15407301 0 0 1 -0.15407,0.1541 0.15407301,0.15407301 0 0 1 -0.15407,-0.1541 z m 4.75423,-65.480913 a 0.0770365,0.0770365 0 0 1 0.077,-0.077 0.0770365,0.0770365 0 0 1 0.077,0.077 0.0770365,0.0770365 0 0 1 -0.077,0.077 0.0770365,0.0770365 0 0 1 -0.077,-0.077 z m -1.00148,4.67722 a 1.0785111,1.0785111 0 0 1 1.07851,-1.07852 1.0785111,1.0785111 0 0 1 1.07852,1.07852 1.0785111,1.0785111 0 0 1 -1.07852,1.07851 1.0785111,1.0785111 0 0 1 -1.07851,-1.07851 z m -0.34666,4.67718 a 1.4251754,1.4251754 0 0 1 1.42517,-1.42518 1.4251754,1.4251754 0 0 1 1.42517,1.42518 1.4251754,1.4251754 0 0 1 -1.42517,1.42517 1.4251754,1.4251754 0 0 1 -1.42517,-1.42517 z m -0.0642,4.67721 a 1.4893724,1.4893724 0 0 1 1.48938,-1.48936 1.4893724,1.4893724 0 0 1 1.48939,1.48936 1.4893724,1.4893724 0 0 1 -1.48939,1.48937 1.4893724,1.4893724 0 0 1 -1.48938,-1.48937 z m -0.0642,4.67724 a 1.5535695,1.5535695 0 0 1 1.55358,-1.55358 1.5535695,1.5535695 0 0 1 1.55358,1.55358 1.5535695,1.5535695 0 0 1 -1.55358,1.55356 1.5535695,1.5535695 0 0 1 -1.55358,-1.55356 z m -0.0642,4.67719 a 1.6177666,1.6177666 0 0 1 1.61778,-1.61777 1.6177666,1.6177666 0 0 1 1.61776,1.61777 1.6177666,1.6177666 0 0 1 -1.61776,1.61777 1.6177666,1.6177666 0 0 1 -1.61778,-1.61777 z m -0.0385,4.67717 a 1.656285,1.656285 0 0 1 1.65628,-1.6562 1.656285,1.656285 0 0 1 1.65628,1.6562 1.656285,1.656285 0 0 1 -1.65628,1.6563 1.656285,1.656285 0 0 1 -1.65628,-1.6563 z m -0.0514,4.677203 a 1.7076427,1.7076427 0 0 1 1.70764,-1.7076 1.7076427,1.7076427 0 0 1 1.70765,1.7076 1.7076427,1.7076427 0 0 1 -1.70765,1.7077 1.7076427,1.7076427 0 0 1 -1.70764,-1.7077 z m -0.0257,4.6773 a 1.7333215,1.7333215 0 0 1 1.73333,-1.7334 1.7333215,1.7333215 0 0 1 1.73333,1.7334 1.7333215,1.7333215 0 0 1 -1.73333,1.7333 1.7333215,1.7333215 0 0 1 -1.73333,-1.7333 z m -0.0257,4.6772 a 1.7590003,1.7590003 0 0 1 1.759,-1.759 1.7590003,1.7590003 0 0 1 1.759,1.759 1.7590003,1.7590003 0 0 1 -1.759,1.759 1.7590003,1.7590003 0 0 1 -1.759,-1.759 z m 0,4.6772 a 1.7590003,1.7590003 0 0 1 1.759,-1.759 1.7590003,1.7590003 0 0 1 1.759,1.759 1.7590003,1.7590003 0 0 1 -1.759,1.759 1.7590003,1.7590003 0 0 1 -1.759,-1.759 z m 0,4.6772 a 1.7590003,1.7590003 0 0 1 1.759,-1.759 1.7590003,1.7590003 0 0 1 1.759,1.759 1.7590003,1.7590003 0 0 1 -1.759,1.759 1.7590003,1.7590003 0 0 1 -1.759,-1.759 z m 0.0128,4.6772 a 1.7461608,1.7461608 0 0 1 1.74616,-1.7462 1.7461608,1.7461608 0 0 1 1.74616,1.7462 1.7461608,1.7461608 0 0 1 -1.74616,1.7462 1.7461608,1.7461608 0 0 1 -1.74616,-1.7462 z m 0.0128,4.6772 a 1.7333215,1.7333215 0 0 1 1.73334,-1.7333 1.7333215,1.7333215 0 0 1 1.73332,1.7333 1.7333215,1.7333215 0 0 1 -1.73332,1.7333 1.7333215,1.7333215 0 0 1 -1.73334,-1.7333 z m 0.32101,4.6772 a 1.412336,1.412336 0 0 1 1.41233,-1.4123 1.412336,1.412336 0 0 1 1.41233,1.4123 1.412336,1.412336 0 0 1 -1.41233,1.4123 1.412336,1.412336 0 0 1 -1.41233,-1.4123 z m 1.27109,4.6772 a 0.14123358,0.14123358 0 0 1 0.14124,-0.1412 0.14123358,0.14123358 0 0 1 0.14122,0.1412 0.14123358,0.14123358 0 0 1 -0.14122,0.1413 0.14123358,0.14123358 0 0 1 -0.14124,-0.1413 z m 3.98385,-70.158123 a 0.83456216,0.83456216 0 0 1 0.83457,-0.83457 0.83456216,0.83456216 0 0 1 0.83457,0.83457 0.83456216,0.83456216 0 0 1 -0.83457,0.83456 0.83456216,0.83456216 0 0 1 -0.83457,-0.83456 z m -0.69331,4.67722 a 1.5278907,1.5278907 0 0 1 1.5279,-1.52789 1.5278907,1.5278907 0 0 1 1.52789,1.52789 1.5278907,1.5278907 0 0 1 -1.52789,1.52788 1.5278907,1.5278907 0 0 1 -1.5279,-1.52788 z m -0.077,4.6772 a 1.6049272,1.6049272 0 0 1 1.60493,-1.60493 1.6049272,1.6049272 0 0 1 1.60493,1.60493 1.6049272,1.6049272 0 0 1 -1.60493,1.60492 1.6049272,1.6049272 0 0 1 -1.60493,-1.60492 z m -0.0899,4.67721 a 1.694803,1.694803 0 0 1 1.69481,-1.6948 1.694803,1.694803 0 0 1 1.6948,1.6948 1.694803,1.694803 0 0 1 -1.6948,1.6948 1.694803,1.694803 0 0 1 -1.69481,-1.6948 z m -0.077,4.67721 a 1.7718396,1.7718396 0 0 1 1.77184,-1.77184 1.7718396,1.7718396 0 0 1 1.77184,1.77184 1.7718396,1.7718396 0 0 1 -1.77184,1.77184 1.7718396,1.7718396 0 0 1 -1.77184,-1.77184 z m -0.0642,4.67721 a 1.8360369,1.8360369 0 0 1 1.83604,-1.83604 1.8360369,1.8360369 0 0 1 1.83603,1.83604 1.8360369,1.8360369 0 0 1 -1.83603,1.83603 1.8360369,1.8360369 0 0 1 -1.83604,-1.83603 z m -0.0642,4.67717 a 1.9002337,1.9002337 0 0 1 1.90023,-1.90019 1.9002337,1.9002337 0 0 1 1.90023,1.90019 1.9002337,1.9002337 0 0 1 -1.90023,1.9003 1.9002337,1.9002337 0 0 1 -1.90023,-1.9003 z m -0.0514,4.677203 a 1.9515915,1.9515915 0 0 1 1.9516,-1.9516 1.9515915,1.9515915 0 0 1 1.95159,1.9516 1.9515915,1.9515915 0 0 1 -1.95159,1.9516 1.9515915,1.9515915 0 0 1 -1.9516,-1.9516 z m -0.0385,4.6773 a 1.9901099,1.9901099 0 0 1 1.99011,-1.9902 1.9901099,1.9901099 0 0 1 1.99011,1.9902 1.9901099,1.9901099 0 0 1 -1.99011,1.9901 1.9901099,1.9901099 0 0 1 -1.99011,-1.9901 z m -0.0257,4.6772 a 2.0157887,2.0157887 0 0 1 2.0158,-2.0158 2.0157887,2.0157887 0 0 1 2.01578,2.0158 2.0157887,2.0157887 0 0 1 -2.01578,2.0158 2.0157887,2.0157887 0 0 1 -2.0158,-2.0158 z m -0.0128,4.6772 a 2.028628,2.028628 0 0 1 2.02864,-2.0287 2.028628,2.028628 0 0 1 2.02863,2.0287 2.028628,2.028628 0 0 1 -2.02863,2.0286 2.028628,2.028628 0 0 1 -2.02864,-2.0286 z m -0.0129,4.6772 a 2.0414675,2.0414675 0 0 1 2.04148,-2.0415 2.0414675,2.0414675 0 0 1 2.04147,2.0415 2.0414675,2.0414675 0 0 1 -2.04147,2.0415 2.0414675,2.0414675 0 0 1 -2.04148,-2.0415 z m 0.0129,4.6772 a 2.028628,2.028628 0 0 1 2.02864,-2.0286 2.028628,2.028628 0 0 1 2.02863,2.0286 2.028628,2.028628 0 0 1 -2.02863,2.0286 2.028628,2.028628 0 0 1 -2.02864,-2.0286 z m 0.0257,4.6772 a 2.0029491,2.0029491 0 0 1 2.00295,-2.0029 2.0029491,2.0029491 0 0 1 2.00295,2.0029 2.0029491,2.0029491 0 0 1 -2.00295,2.003 2.0029491,2.0029491 0 0 1 -2.00295,-2.003 z m 0.0385,4.6772 a 1.964431,1.964431 0 0 1 1.96444,-1.9644 1.964431,1.964431 0 0 1 1.96443,1.9644 1.964431,1.964431 0 0 1 -1.96443,1.9644 1.964431,1.964431 0 0 1 -1.96444,-1.9644 z m 0.70617,4.6772 a 1.2582629,1.2582629 0 0 1 1.25826,-1.2582 1.2582629,1.2582629 0 0 1 1.25827,1.2582 1.2582629,1.2582629 0 0 1 -1.25827,1.2583 1.2582629,1.2582629 0 0 1 -1.25826,-1.2583 z m 5.69153,-74.835303 a 0.24394894,0.24394894 0 0 1 0.24395,-0.24395 0.24394894,0.24394894 0 0 1 0.24395,0.24395 0.24394894,0.24394894 0 0 1 -0.24395,0.24395 0.24394894,0.24394894 0 0 1 -0.24395,-0.24395 z m -1.28393,4.6772 a 1.5278907,1.5278907 0 0 1 1.52789,-1.52789 1.5278907,1.5278907 0 0 1 1.52789,1.52789 1.5278907,1.5278907 0 0 1 -1.52789,1.52788 1.5278907,1.5278907 0 0 1 -1.52789,-1.52788 z m -0.14124,4.67718 a 1.6691242,1.6691242 0 0 1 1.66912,-1.66912 1.6691242,1.6691242 0 0 1 1.66912,1.66912 1.6691242,1.6691242 0 0 1 -1.66912,1.66912 1.6691242,1.6691242 0 0 1 -1.66912,-1.66912 z m -0.0642,4.67724 a 1.7333215,1.7333215 0 0 1 1.73333,-1.73332 1.7333215,1.7333215 0 0 1 1.73333,1.73332 1.7333215,1.7333215 0 0 1 -1.73333,1.73331 1.7333215,1.7333215 0 0 1 -1.73333,-1.73331 z m 0.0771,4.67719 a 1.656285,1.656285 0 0 1 1.65628,-1.65628 1.656285,1.656285 0 0 1 1.65628,1.65628 1.656285,1.656285 0 0 1 -1.65628,1.65627 1.656285,1.656285 0 0 1 -1.65628,-1.65627 z m -0.21827,4.67721 a 1.8745549,1.8745549 0 0 1 1.87456,-1.87456 1.8745549,1.8745549 0 0 1 1.87455,1.87456 1.8745549,1.8745549 0 0 1 -1.87455,1.87456 1.8745549,1.8745549 0 0 1 -1.87456,-1.87456 z m -0.16692,4.67721 a 2.0414675,2.0414675 0 0 1 2.04147,-2.04147 2.0414675,2.0414675 0 0 1 2.04147,2.04147 2.0414675,2.0414675 0 0 1 -2.04147,2.04147 2.0414675,2.0414675 0 0 1 -2.04147,-2.04147 z m -0.077,4.67717 a 2.1185041,2.1185041 0 0 1 2.11851,-2.11847 2.1185041,2.1185041 0 0 1 2.11851,2.11847 2.1185041,2.1185041 0 0 1 -2.11851,2.118503 2.1185041,2.1185041 0 0 1 -2.11851,-2.118503 z m -0.0642,4.677203 a 2.1827009,2.1827009 0 0 1 2.1827,-2.1827 2.1827009,2.1827009 0 0 1 2.1827,2.1827 2.1827009,2.1827009 0 0 1 -2.1827,2.1827 2.1827009,2.1827009 0 0 1 -2.1827,-2.1827 z m -0.0514,4.6773 a 2.2340587,2.2340587 0 0 1 2.23406,-2.2341 2.2340587,2.2340587 0 0 1 2.23406,2.2341 2.2340587,2.2340587 0 0 1 -2.23406,2.234 2.2340587,2.2340587 0 0 1 -2.23406,-2.234 z m -0.0385,4.6772 a 2.272577,2.272577 0 0 1 2.27258,-2.2726 2.272577,2.272577 0 0 1 2.27258,2.2726 2.272577,2.272577 0 0 1 -2.27258,2.2725 2.272577,2.272577 0 0 1 -2.27258,-2.2725 z m -0.0257,4.6772 a 2.298256,2.298256 0 0 1 2.29825,-2.2983 2.298256,2.298256 0 0 1 2.29825,2.2983 2.298256,2.298256 0 0 1 -2.29825,2.2982 2.298256,2.298256 0 0 1 -2.29825,-2.2982 z m -0.006,4.6772 a 2.3046755,2.3046755 0 0 1 2.30468,-2.3047 2.3046755,2.3046755 0 0 1 2.30468,2.3047 2.3046755,2.3046755 0 0 1 -2.30468,2.3047 2.3046755,2.3046755 0 0 1 -2.30468,-2.3047 z m 0.006,4.6772 a 2.298256,2.298256 0 0 1 2.29825,-2.2983 2.298256,2.298256 0 0 1 2.29825,2.2983 2.298256,2.298256 0 0 1 -2.29825,2.2982 2.298256,2.298256 0 0 1 -2.29825,-2.2982 z m 0.0257,4.6772 a 2.272577,2.272577 0 0 1 2.27258,-2.2726 2.272577,2.272577 0 0 1 2.27258,2.2726 2.272577,2.272577 0 0 1 -2.27258,2.2726 2.272577,2.272577 0 0 1 -2.27258,-2.2726 z m 0.0385,4.6772 a 2.2340587,2.2340587 0 0 1 2.23406,-2.234 2.2340587,2.2340587 0 0 1 2.23406,2.234 2.2340587,2.2340587 0 0 1 -2.23406,2.2341 2.2340587,2.2340587 0 0 1 -2.23406,-2.2341 z m 0.0642,4.6772 a 2.1698617,2.1698617 0 0 1 2.16986,-2.1698 2.1698617,2.1698617 0 0 1 2.16986,2.1698 2.1698617,2.1698617 0 0 1 -2.16986,2.1699 2.1698617,2.1698617 0 0 1 -2.16986,-2.1699 z m 1.68195,4.6772 a 0.48789786,0.48789786 0 0 1 0.4879,-0.4879 0.48789786,0.48789786 0 0 1 0.4879,0.4879 0.48789786,0.48789786 0 0 1 -0.4879,0.4879 0.48789786,0.48789786 0 0 1 -0.4879,-0.4879 z m 4.29205,-79.512523 a 0.87308039,0.87308039 0 0 1 0.87308,-0.87308 0.87308039,0.87308039 0 0 1 0.87308,0.87308 0.87308039,0.87308039 0 0 1 -0.87308,0.87307 0.87308039,0.87308039 0 0 1 -0.87308,-0.87307 z m -0.69334,4.67721 a 1.5664089,1.5664089 0 0 1 1.56642,-1.5664 1.5664089,1.5664089 0 0 1 1.56641,1.5664 1.5664089,1.5664089 0 0 1 -1.56641,1.5664 1.5664089,1.5664089 0 0 1 -1.56642,-1.5664 z m 0.80889,4.67721 a 0.75752566,0.75752566 0 0 1 0.75753,-0.75753 0.75752566,0.75752566 0 0 1 0.75753,0.75753 0.75752566,0.75752566 0 0 1 -0.75753,0.75753 0.75752566,0.75752566 0 0 1 -0.75753,-0.75753 z m 0.0385,18.70883 a 0.71900738,0.71900738 0 0 1 0.71901,-0.71901 0.71900738,0.71900738 0 0 1 0.71901,0.71901 0.71900738,0.71900738 0 0 1 -0.71901,0.719 0.71900738,0.71900738 0 0 1 -0.71901,-0.719 z m -1.22616,4.67717 a 1.9451718,1.9451718 0 0 1 1.94517,-1.94513 1.9451718,1.9451718 0 0 1 1.94517,1.94513 1.9451718,1.9451718 0 0 1 -1.94517,1.945203 1.9451718,1.9451718 0 0 1 -1.94517,-1.945203 z m -0.43655,4.677203 a 2.3817121,2.3817121 0 0 1 2.38172,-2.3817 2.3817121,2.3817121 0 0 1 2.38171,2.3817 2.3817121,2.3817121 0 0 1 -2.38171,2.3817 2.3817121,2.3817121 0 0 1 -2.38172,-2.3817 z m -0.077,4.6773 a 2.4587485,2.4587485 0 0 1 2.45875,-2.4588 2.4587485,2.4587485 0 0 1 2.45875,2.4588 2.4587485,2.4587485 0 0 1 -2.45875,2.4587 2.4587485,2.4587485 0 0 1 -2.45875,-2.4587 z m -0.0514,4.6772 a 2.5101062,2.5101062 0 0 1 2.5101,-2.5101 2.5101062,2.5101062 0 0 1 2.51011,2.5101 2.5101062,2.5101062 0 0 1 -2.51011,2.5101 2.5101062,2.5101062 0 0 1 -2.5101,-2.5101 z m -0.0514,4.6772 a 2.5614638,2.5614638 0 0 1 2.56147,-2.5615 2.5614638,2.5614638 0 0 1 2.56147,2.5615 2.5614638,2.5614638 0 0 1 -2.56147,2.5614 2.5614638,2.5614638 0 0 1 -2.56147,-2.5614 z m -0.0128,4.6772 a 2.5743032,2.5743032 0 0 1 2.57431,-2.5743 2.5743032,2.5743032 0 0 1 2.57431,2.5743 2.5743032,2.5743032 0 0 1 -2.57431,2.5743 2.5743032,2.5743032 0 0 1 -2.57431,-2.5743 z m 0.77229,4.6772 a 1.8020122,1.8020122 0 0 1 1.80202,-1.802 1.8020122,1.8020122 0 0 1 1.80201,1.802 1.8020122,1.8020122 0 0 1 -1.80201,1.802 1.8020122,1.8020122 0 0 1 -1.80202,-1.802 z m -0.74661,4.6772 a 2.5486244,2.5486244 0 0 1 2.54863,-2.5486 2.5486244,2.5486244 0 0 1 2.54862,2.5486 2.5486244,2.5486244 0 0 1 -2.54862,2.5486 2.5486244,2.5486244 0 0 1 -2.54863,-2.5486 z m 0.0385,4.6772 a 2.5101062,2.5101062 0 0 1 2.5101,-2.5101 2.5101062,2.5101062 0 0 1 2.51011,2.5101 2.5101062,2.5101062 0 0 1 -2.51011,2.5101 2.5101062,2.5101062 0 0 1 -2.5101,-2.5101 z m 0.0642,4.6772 a 2.4459091,2.4459091 0 0 1 2.44591,-2.4459 2.4459091,2.4459091 0 0 1 2.44591,2.4459 2.4459091,2.4459091 0 0 1 -2.44591,2.4459 2.4459091,2.4459091 0 0 1 -2.44591,-2.4459 z m 0.95654,4.6772 a 1.4893724,1.4893724 0 0 1 1.48938,-1.4893 1.4893724,1.4893724 0 0 1 1.48938,1.4893 1.4893724,1.4893724 0 0 1 -1.48938,1.4894 1.4893724,1.4893724 0 0 1 -1.48938,-1.4894 z m 4.89551,-79.512523 a 1.2711023,1.2711023 0 0 1 1.27109,-1.27111 1.2711023,1.2711023 0 0 1 1.27111,1.27111 1.2711023,1.2711023 0 0 1 -1.27111,1.27109 1.2711023,1.2711023 0 0 1 -1.27109,-1.27109 z m 0.87308,4.6772 a 0.39802194,0.39802194 0 0 1 0.39801,-0.39802 0.39802194,0.39802194 0 0 1 0.39803,0.39802 0.39802194,0.39802194 0 0 1 -0.39803,0.39802 0.39802194,0.39802194 0 0 1 -0.39801,-0.39802 z m 0.16691,28.06322 a 0.23110951,0.23110951 0 0 1 0.2311,-0.2311 0.23110951,0.23110951 0 0 1 0.23112,0.2311 0.23110951,0.23110951 0 0 1 -0.23112,0.2311 0.23110951,0.23110951 0 0 1 -0.2311,-0.2311 z m -1.94519,4.677303 a 2.1762814,2.1762814 0 0 1 2.17629,-2.1763 2.1762814,2.1762814 0 0 1 2.1763,2.1763 2.1762814,2.1762814 0 0 1 -2.1763,2.1762 2.1762814,2.1762814 0 0 1 -2.17629,-2.1762 z m -0.46221,4.6772 a 2.6385003,2.6385003 0 0 1 2.6385,-2.6385 2.6385003,2.6385003 0 0 1 2.63851,2.6385 2.6385003,2.6385003 0 0 1 -2.63851,2.6385 2.6385003,2.6385003 0 0 1 -2.6385,-2.6385 z m -0.0899,4.6772 a 2.7283765,2.7283765 0 0 1 2.72839,-2.7284 2.7283765,2.7283765 0 0 1 2.72838,2.7284 2.7283765,2.7283765 0 0 1 -2.72838,2.7283 2.7283765,2.7283765 0 0 1 -2.72839,-2.7283 z m -0.0642,4.6772 a 2.7925734,2.7925734 0 0 1 2.79259,-2.7926 2.7925734,2.7925734 0 0 1 2.79258,2.7926 2.7925734,2.7925734 0 0 1 -2.79258,2.7925 2.7925734,2.7925734 0 0 1 -2.79259,-2.7925 z m 1.10045,4.6772 a 1.6921389,1.6921389 0 0 1 1.69214,-1.6922 1.6921389,1.6921389 0 0 1 1.69213,1.6922 1.6921389,1.6921389 0 0 1 -1.69213,1.6921 1.6921389,1.6921389 0 0 1 -1.69214,-1.6921 z m 0.0153,9.3544 a 1.67686,1.67686 0 0 1 1.67687,-1.6769 1.67686,1.67686 0 0 1 1.67686,1.6769 1.67686,1.67686 0 0 1 -1.67686,1.6769 1.67686,1.67686 0 0 1 -1.67687,-1.6769 z m -1.09003,4.6772 a 2.7668945,2.7668945 0 0 1 2.7669,-2.7669 2.7668945,2.7668945 0 0 1 2.7669,2.7669 2.7668945,2.7668945 0 0 1 -2.7669,2.7669 2.7668945,2.7668945 0 0 1 -2.7669,-2.7669 z m 0.0899,4.6772 a 2.6770187,2.6770187 0 0 1 2.67703,-2.677 2.6770187,2.6770187 0 0 1 2.67702,2.677 2.6770187,2.6770187 0 0 1 -2.67702,2.677 2.6770187,2.6770187 0 0 1 -2.67703,-2.677 z m 0.37234,4.6772 a 2.3046755,2.3046755 0 0 1 2.30469,-2.3046 2.3046755,2.3046755 0 0 1 2.30468,2.3046 2.3046755,2.3046755 0 0 1 -2.30468,2.3047 2.3046755,2.3046755 0 0 1 -2.30469,-2.3047 z m 6.33993,-84.189733 a 0.64197087,0.64197087 0 0 1 0.64198,-0.64198 0.64197087,0.64197087 0 0 1 0.64197,0.64198 0.64197087,0.64197087 0 0 1 -0.64197,0.64196 0.64197087,0.64197087 0 0 1 -0.64198,-0.64196 z m -0.16691,4.67722 a 0.80888329,0.80888329 0 0 1 0.80889,-0.80888 0.80888329,0.80888329 0 0 1 0.80889,0.80888 0.80888329,0.80888329 0 0 1 -0.80889,0.80888 0.80888329,0.80888329 0 0 1 -0.80889,-0.80888 z m -0.0642,37.417613 a 0.87308039,0.87308039 0 0 1 0.87308,-0.873 0.87308039,0.87308039 0 0 1 0.87308,0.873 0.87308039,0.87308039 0 0 1 -0.87308,0.8731 0.87308039,0.87308039 0 0 1 -0.87308,-0.8731 z m -1.8553,4.6773 a 2.7283765,2.7283765 0 0 1 2.72838,-2.7284 2.7283765,2.7283765 0 0 1 2.72838,2.7284 2.7283765,2.7283765 0 0 1 -2.72838,2.7283 2.7283765,2.7283765 0 0 1 -2.72838,-2.7283 z m -0.11555,4.6772 a 2.8439311,2.8439311 0 0 1 2.84394,-2.844 2.8439311,2.8439311 0 0 1 2.84393,2.844 2.8439311,2.8439311 0 0 1 -2.84393,2.8439 2.8439311,2.8439311 0 0 1 -2.84394,-2.8439 z m 0.77229,4.6772 a 2.0716401,2.0716401 0 0 1 2.07165,-2.0717 2.0716401,2.0716401 0 0 1 2.07164,2.0717 2.0716401,2.0716401 0 0 1 -2.07164,2.0716 2.0716401,2.0716401 0 0 1 -2.07165,-2.0716 z m -0.009,18.7088 a 2.0806276,2.0806276 0 0 1 2.08063,-2.0806 2.0806276,2.0806276 0 0 1 2.08063,2.0806 2.0806276,2.0806276 0 0 1 -2.08063,2.0806 2.0806276,2.0806276 0 0 1 -2.08063,-2.0806 z m -0.78898,4.6772 a 2.8696097,2.8696097 0 0 1 2.86961,-2.8696 2.8696097,2.8696097 0 0 1 2.86961,2.8696 2.8696097,2.8696097 0 0 1 -2.86961,2.8696 2.8696097,2.8696097 0 0 1 -2.86961,-2.8696 z m 0.16691,4.6772 a 2.7026976,2.7026976 0 0 1 2.7027,-2.7027 2.7026976,2.7026976 0 0 1 2.7027,2.7027 2.7026976,2.7026976 0 0 1 -2.7027,2.7027 2.7026976,2.7026976 0 0 1 -2.7027,-2.7027 z m 6.08313,-84.189763 a 1.2967812,1.2967812 0 0 1 1.29678,-1.29678 1.2967812,1.2967812 0 0 1 1.29679,1.29678 1.2967812,1.2967812 0 0 1 -1.29679,1.29678 1.2967812,1.2967812 0 0 1 -1.29678,-1.29678 z m 1.00149,4.67724 a 0.29530659,0.29530659 0 0 1 0.29531,-0.2953 0.29530659,0.29530659 0 0 1 0.2953,0.2953 0.29530659,0.29530659 0 0 1 -0.2953,0.2953 0.29530659,0.29530659 0 0 1 -0.29531,-0.2953 z m 0.21827,37.417623 a 0.0770365,0.0770365 0 0 1 0.077,-0.077 0.0770365,0.0770365 0 0 1 0.077,0.077 0.0770365,0.0770365 0 0 1 -0.077,0.077 0.0770365,0.0770365 0 0 1 -0.077,-0.077 z m -2.40098,4.6772 a 2.4780077,2.4780077 0 0 1 2.478,-2.478 2.4780077,2.4780077 0 0 1 2.47802,2.478 2.4780077,2.4780077 0 0 1 -2.47802,2.478 2.4780077,2.4780077 0 0 1 -2.478,-2.478 z m -0.32741,4.6773 a 2.8054128,2.8054128 0 0 1 2.80541,-2.8055 2.8054128,2.8054128 0 0 1 2.80543,2.8055 2.8054128,2.8054128 0 0 1 -2.80543,2.8054 2.8054128,2.8054128 0 0 1 -2.80541,-2.8054 z m -0.11555,4.6772 a 2.9209677,2.9209677 0 0 1 2.92096,-2.921 2.9209677,2.9209677 0 0 1 2.92098,2.921 2.9209677,2.9209677 0 0 1 -2.92098,2.9209 2.9209677,2.9209677 0 0 1 -2.92096,-2.9209 z m 1.11423,4.6772 a 1.8067308,1.8067308 0 0 1 1.80673,-1.8067 1.8067308,1.8067308 0 0 1 1.80674,1.8067 1.8067308,1.8067308 0 0 1 -1.80674,1.8067 1.8067308,1.8067308 0 0 1 -1.80673,-1.8067 z m -0.0306,9.3544 a 1.8372886,1.8372886 0 0 1 1.83728,-1.8373 1.8372886,1.8372886 0 0 1 1.83729,1.8373 1.8372886,1.8372886 0 0 1 -1.83729,1.8373 1.8372886,1.8372886 0 0 1 -1.83728,-1.8373 z m -1.17356,4.6772 a 3.0108435,3.0108435 0 0 1 3.01084,-3.0108 3.0108435,3.0108435 0 0 1 3.01085,3.0108 3.0108435,3.0108435 0 0 1 -3.01085,3.0109 3.0108435,3.0108435 0 0 1 -3.01084,-3.0109 z m 0.11556,4.6772 a 2.8952888,2.8952888 0 0 1 2.89528,-2.8953 2.8952888,2.8952888 0 0 1 2.8953,2.8953 2.8952888,2.8952888 0 0 1 -2.8953,2.8953 2.8952888,2.8952888 0 0 1 -2.89528,-2.8953 z m 0.46221,4.6772 a 2.4330697,2.4330697 0 0 1 2.43307,-2.433 2.4330697,2.4330697 0 0 1 2.43307,2.433 2.4330697,2.4330697 0 0 1 -2.43307,2.4331 2.4330697,2.4330697 0 0 1 -2.43307,-2.4331 z m 6.69944,-84.189763 a 0.41086135,0.41086135 0 0 1 0.41086,-0.41086 0.41086135,0.41086135 0 0 1 0.41087,0.41086 0.41086135,0.41086135 0 0 1 -0.41087,0.41086 0.41086135,0.41086135 0 0 1 -0.41086,-0.41086 z m -1.03358,46.772163 a 1.4444343,1.4444343 0 0 1 1.44444,-1.4445 1.4444343,1.4444343 0 0 1 1.44444,1.4445 1.4444343,1.4444343 0 0 1 -1.44444,1.4444 1.4444343,1.4444343 0 0 1 -1.44444,-1.4444 z m -1.19407,4.6772 a 2.6385003,2.6385003 0 0 1 2.63851,-2.6385 2.6385003,2.6385003 0 0 1 2.63851,2.6385 2.6385003,2.6385003 0 0 1 -2.63851,2.6385 2.6385003,2.6385003 0 0 1 -2.63851,-2.6385 z m -0.0899,4.6772 a 2.7283765,2.7283765 0 0 1 2.72839,-2.7284 2.7283765,2.7283765 0 0 1 2.72838,2.7284 2.7283765,2.7283765 0 0 1 -2.72838,2.7284 2.7283765,2.7283765 0 0 1 -2.72839,-2.7284 z m -0.0642,4.6772 a 2.7925734,2.7925734 0 0 1 2.79258,-2.7926 2.7925734,2.7925734 0 0 1 2.79257,2.7926 2.7925734,2.7925734 0 0 1 -2.79257,2.7925 2.7925734,2.7925734 0 0 1 -2.79258,-2.7925 z m 0.80183,4.6772 a 1.9907517,1.9907517 0 0 1 1.99075,-1.9908 1.9907517,1.9907517 0 0 1 1.99075,1.9908 1.9907517,1.9907517 0 0 1 -1.99075,1.9907 1.9907517,1.9907517 0 0 1 -1.99075,-1.9907 z m -0.85318,4.6772 a 2.8439311,2.8439311 0 0 1 2.84393,-2.8439 2.8439311,2.8439311 0 0 1 2.84393,2.8439 2.8439311,2.8439311 0 0 1 -2.84393,2.8439 2.8439311,2.8439311 0 0 1 -2.84393,-2.8439 z m 0.0257,4.6772 a 2.8182522,2.8182522 0 0 1 2.81826,-2.8182 2.8182522,2.8182522 0 0 1 2.81827,2.8182 2.8182522,2.8182522 0 0 1 -2.81827,2.8183 2.8182522,2.8182522 0 0 1 -2.81826,-2.8183 z m 0.0642,4.6772 a 2.7540551,2.7540551 0 0 1 2.75405,-2.754 2.7540551,2.7540551 0 0 1 2.75405,2.754 2.7540551,2.7540551 0 0 1 -2.75405,2.7541 2.7540551,2.7540551 0 0 1 -2.75405,-2.7541 z m 1.34171,4.6772 a 1.412336,1.412336 0 0 1 1.41234,-1.4123 1.412336,1.412336 0 0 1 1.41235,1.4123 1.412336,1.412336 0 0 1 -1.41235,1.4124 1.412336,1.412336 0 0 1 -1.41234,-1.4124 z m 5.92265,-37.4176 a 0.16691242,0.16691242 0 0 1 0.16691,-0.167 0.16691242,0.16691242 0 0 1 0.16692,0.167 0.16691242,0.16691242 0 0 1 -0.16692,0.1669 0.16691242,0.16691242 0 0 1 -0.16691,-0.1669 z m -1.77826,4.6772 a 1.9451718,1.9451718 0 0 1 1.94517,-1.9452 1.9451718,1.9451718 0 0 1 1.94517,1.9452 1.9451718,1.9451718 0 0 1 -1.94517,1.9451 1.9451718,1.9451718 0 0 1 -1.94517,-1.9451 z m -0.53926,4.6772 a 2.4844274,2.4844274 0 0 1 2.48443,-2.4844 2.4844274,2.4844274 0 0 1 2.48444,2.4844 2.4844274,2.4844274 0 0 1 -2.48444,2.4844 2.4844274,2.4844274 0 0 1 -2.48443,-2.4844 z m -0.0514,4.6772 a 2.535785,2.535785 0 0 1 2.53579,-2.5358 2.535785,2.535785 0 0 1 2.53579,2.5358 2.535785,2.535785 0 0 1 -2.53579,2.5358 2.535785,2.535785 0 0 1 -2.53579,-2.5358 z m -0.0257,4.6772 a 2.5614638,2.5614638 0 0 1 2.56147,-2.5615 2.5614638,2.5614638 0 0 1 2.56148,2.5615 2.5614638,2.5614638 0 0 1 -2.56148,2.5615 2.5614638,2.5614638 0 0 1 -2.56147,-2.5615 z m -0.0128,4.6772 a 2.5743032,2.5743032 0 0 1 2.57431,-2.5743 2.5743032,2.5743032 0 0 1 2.57431,2.5743 2.5743032,2.5743032 0 0 1 -2.57431,2.5743 2.5743032,2.5743032 0 0 1 -2.57431,-2.5743 z m 0,4.6772 a 2.5743032,2.5743032 0 0 1 2.57431,-2.5743 2.5743032,2.5743032 0 0 1 2.57431,2.5743 2.5743032,2.5743032 0 0 1 -2.57431,2.5743 2.5743032,2.5743032 0 0 1 -2.57431,-2.5743 z m 0.59062,4.6772 a 1.9836901,1.9836901 0 0 1 1.98369,-1.9837 1.9836901,1.9836901 0 0 1 1.98369,1.9837 1.9836901,1.9836901 0 0 1 -1.98369,1.9837 1.9836901,1.9836901 0 0 1 -1.98369,-1.9837 z m 1.84245,4.6772 a 0.14123358,0.14123358 0 0 1 0.14124,-0.1412 0.14123358,0.14123358 0 0 1 0.14123,0.1412 0.14123358,0.14123358 0 0 1 -0.14123,0.1413 0.14123358,0.14123358 0 0 1 -0.14124,-0.1413 z m 4.67723,-32.7404 a 0.14123358,0.14123358 0 0 1 0.14124,-0.1413 0.14123358,0.14123358 0 0 1 0.14124,0.1413 0.14123358,0.14123358 0 0 1 -0.14124,0.1412 0.14123358,0.14123358 0 0 1 -0.14124,-0.1412 z m -1.11701,4.6772 a 1.2582629,1.2582629 0 0 1 1.25825,-1.2583 1.2582629,1.2582629 0 0 1 1.25826,1.2583 1.2582629,1.2582629 0 0 1 -1.25826,1.2582 1.2582629,1.2582629 0 0 1 -1.25825,-1.2582 z m -0.75753,4.6772 a 2.0157887,2.0157887 0 0 1 2.01578,-2.0158 2.0157887,2.0157887 0 0 1 2.0158,2.0158 2.0157887,2.0157887 0 0 1 -2.0158,2.0158 2.0157887,2.0157887 0 0 1 -2.01578,-2.0158 z m -0.24396,4.6772 a 2.2597375,2.2597375 0 0 1 2.25974,-2.2597 2.2597375,2.2597375 0 0 1 2.25974,2.2597 2.2597375,2.2597375 0 0 1 -2.25974,2.2597 2.2597375,2.2597375 0 0 1 -2.25974,-2.2597 z m 0.23754,4.6772 a 2.0222083,2.0222083 0 0 1 2.0222,-2.0222 2.0222083,2.0222083 0 0 1 2.02221,2.0222 2.0222083,2.0222083 0 0 1 -2.02221,2.0222 2.0222083,2.0222083 0 0 1 -2.0222,-2.0222 z m 0.78962,4.6772 a 1.2325841,1.2325841 0 0 1 1.23258,-1.2326 1.2325841,1.2325841 0 0 1 1.23259,1.2326 1.2325841,1.2325841 0 0 1 -1.23259,1.2326 1.2325841,1.2325841 0 0 1 -1.23258,-1.2326 z m 1.1042,4.6772 a 0.12839415,0.12839415 0 0 1 0.12838,-0.1284 0.12839415,0.12839415 0 0 1 0.12837,0.1284 0.12839415,0.12839415 0 0 1 -0.12837,0.1284 0.12839415,0.12839415 0 0 1 -0.12838,-0.1284 z"
       inkscape:connector-curvature="0" />
    <g
       aria-label="SECAI"
       transform="matrix(1.459334,0,0,1.459334,-1765.2208,-2544.1254)"
       id="flowRoot10596-3"
       style="font-weight:bold;font-size:40px;line-height:125%;font-family:Comfortaa;-inkscape-font-specification:'Comfortaa, Bold';letter-spacing:0px;word-spacing:0px;fill:#376d91;stroke-width:0.654828px;fill-opacity:1">
      <path
         d="m 1429.1446,1830.2671 q -3.88,0 -7.08,-1.76 -3.16,-1.76 -4.36,-4.6 -0.2,-0.48 -0.2,-0.8 0,-0.6 0.44,-1.04 0.44,-0.48 1.2,-0.64 0.12,-0.04 0.4,-0.04 0.64,0 1.2,0.4 0.6,0.36 0.88,1 0.72,1.56 2.84,2.64 2.12,1.08 4.68,1.08 3,0 5.08,-1.36 2.08,-1.4 2.08,-3.8 0,-2.28 -1.76,-3.88 -1.76,-1.64 -5.36,-2 -4.96,-0.48 -7.8,-2.88 -2.84,-2.44 -2.84,-6.08 0,-2.56 1.44,-4.4 1.48,-1.88 4,-2.84 2.56,-1 5.72,-1 3.44,0 5.8,1.4 2.36,1.4 4,4 0.48,0.76 0.48,1.44 0,0.88 -0.8,1.44 -0.44,0.28 -1.04,0.28 -0.6,0 -1.12,-0.28 -0.52,-0.32 -0.8,-0.84 -1.08,-1.8 -2.72,-2.72 -1.6,-0.96 -4.08,-0.96 -3.04,0 -4.92,1.2 -1.88,1.16 -1.88,3.4 0,2.08 1.68,3.48 1.68,1.4 6,1.84 4.8,0.48 7.44,2.92 2.64,2.4 2.64,6.36 0,2.88 -1.56,4.96 -1.56,2.04 -4.16,3.08 -2.56,1 -5.52,1 z"
         id="path9353"
         style="fill:#376d91;fill-opacity:1" />
      <path
         d="m 1448.8246,1829.8671 q -0.88,0 -1.48,-0.6 -0.6,-0.6 -0.6,-1.48 v -27.08 q 0,-0.92 0.6,-1.48 0.6,-0.6 1.48,-0.6 h 18.08 q 0.92,0 1.48,0.56 0.56,0.52 0.56,1.4 0,0.84 -0.56,1.36 -0.56,0.52 -1.48,0.52 h -16 v 9.72 h 11.48 q 0.88,0 1.44,0.56 0.6,0.52 0.6,1.36 0,0.84 -0.6,1.4 -0.56,0.52 -1.44,0.52 h -11.48 v 10 h 16 q 0.92,0 1.48,0.52 0.56,0.52 0.56,1.36 0,0.88 -0.56,1.44 -0.56,0.52 -1.48,0.52 z"
         style="-inkscape-font-specification:'Comfortaa Bold';fill:#376d91;fill-opacity:1"
         id="path9355" />
      <path
         d="m 1488.7446,1830.2671 q -4.28,0 -7.84,-2.12 -3.52,-2.12 -5.56,-5.8 -2.04,-3.68 -2.04,-8.12 0,-4.4 2.04,-8.04 2.04,-3.68 5.56,-5.8 3.56,-2.16 7.84,-2.16 3.04,0 5.24,0.8 2.24,0.8 4.52,2.64 0.48,0.36 0.64,0.76 0.16,0.36 0.16,0.88 0,0.8 -0.6,1.32 -0.56,0.52 -1.32,0.52 -0.76,0 -1.4,-0.52 -1.64,-1.4 -3.2,-2 -1.56,-0.64 -4.04,-0.64 -3.12,0 -5.76,1.64 -2.6,1.64 -4.16,4.48 -1.52,2.8 -1.52,6.12 0,3.36 1.52,6.16 1.56,2.8 4.16,4.44 2.64,1.64 5.76,1.64 3.84,0 7.36,-2.64 0.68,-0.48 1.32,-0.48 0.76,0 1.24,0.56 0.52,0.52 0.52,1.4 0,0.84 -0.64,1.48 -4.32,3.48 -9.8,3.48 z"
         style="-inkscape-font-specification:'Comfortaa Bold';fill:#376d91;fill-opacity:1"
         id="path9357" />
      <path
         d="m 1529.1845,1826.9471 q 0.2,0.52 0.2,0.88 0,0.84 -0.6,1.44 -0.6,0.6 -1.48,0.6 -0.6,0 -1.16,-0.32 -0.52,-0.36 -0.76,-0.96 l -2.24,-5.6 h -14.36 l -2.28,5.6 q -0.28,0.6 -0.8,0.96 -0.52,0.32 -1.12,0.32 -0.88,0 -1.48,-0.6 -0.56,-0.64 -0.56,-1.48 0,-0.4 0.2,-0.92 l 11.24,-26.84 q 0.6,-1.4 1.96,-1.4 1.44,0 1.96,1.4 z m -19,-7.4 h 11.56 l -5.72,-14.24 z"
         id="path9359"
         style="fill:#376d91;fill-opacity:1" />
      <path
         d="m 1536.0245,1829.8671 q -0.88,0 -1.48,-0.6 -0.6,-0.6 -0.6,-1.48 v -27.08 q 0,-0.92 0.6,-1.48 0.6,-0.6 1.48,-0.6 0.92,0 1.48,0.6 0.6,0.56 0.6,1.48 v 27.08 q 0,0.88 -0.6,1.48 -0.56,0.6 -1.48,0.6 z"
         id="path9361"
         style="fill:#376d91;fill-opacity:1" />
    </g>
    <g
       aria-label="School of Embedded Composite Artificial Intelligence"
       transform="matrix(1.2433885,0,0,1.2433885,-1258.4602,-2148.9251)"
       id="flowRoot5127"
       style="font-weight:bold;font-size:10.3366px;line-height:125%;font-family:Comfortaa;-inkscape-font-specification:'Comfortaa, Bold';letter-spacing:0px;word-spacing:0px;fill:#376d91;stroke-width:0.768555px;fill-opacity:1">
      <path
         d="m 1418.8217,1802.8245 q -1.0026,0 -1.8295,-0.4548 -0.8166,-0.4549 -1.1267,-1.1888 -0.052,-0.124 -0.052,-0.2067 0,-0.155 0.1137,-0.2687 0.1137,-0.1241 0.3101,-0.1654 0.031,-0.01 0.1034,-0.01 0.1653,0 0.3101,0.1034 0.155,0.093 0.2274,0.2584 0.186,0.4031 0.7339,0.6822 0.5478,0.2791 1.2093,0.2791 0.7753,0 1.3128,-0.3514 0.5375,-0.3618 0.5375,-0.982 0,-0.5892 -0.4548,-1.0026 -0.4548,-0.4238 -1.3851,-0.5169 -1.2818,-0.124 -2.0157,-0.7442 -0.7339,-0.6305 -0.7339,-1.5712 0,-0.6615 0.3722,-1.137 0.3824,-0.4858 1.0336,-0.7339 0.6616,-0.2584 1.4782,-0.2584 0.8889,0 1.4988,0.3618 0.6098,0.3617 1.0336,1.0336 0.1241,0.1964 0.1241,0.3721 0,0.2274 -0.2068,0.3722 -0.1137,0.072 -0.2687,0.072 -0.1551,0 -0.2894,-0.072 -0.1344,-0.083 -0.2068,-0.2171 -0.2791,-0.4652 -0.7029,-0.7029 -0.4134,-0.2481 -1.0543,-0.2481 -0.7856,0 -1.2714,0.3101 -0.4858,0.2998 -0.4858,0.8786 0,0.5375 0.4341,0.8993 0.4342,0.3618 1.5505,0.4755 1.2404,0.124 1.9226,0.7546 0.6822,0.6202 0.6822,1.6435 0,0.7442 -0.4031,1.2817 -0.4031,0.5272 -1.075,0.7959 -0.6615,0.2585 -1.4265,0.2585 z"
         id="path9260"
         style="fill:#376d91;fill-opacity:1" />
      <path
         d="m 1425.83,1802.7624 q -0.8166,0 -1.4678,-0.3721 -0.6512,-0.3721 -1.0234,-1.0233 -0.3617,-0.6615 -0.3617,-1.4678 0,-0.8269 0.3514,-1.4781 0.3618,-0.6616 1.0027,-1.0234 0.6408,-0.3721 1.4471,-0.3721 1.2197,0 2.0259,0.9303 0.1034,0.1137 0.1034,0.2688 0,0.2274 -0.2274,0.3824 -0.1034,0.072 -0.2377,0.072 -0.2378,0 -0.4032,-0.1861 -0.2584,-0.2791 -0.5685,-0.4031 -0.2997,-0.1344 -0.6925,-0.1344 -0.7959,0 -1.2921,0.5375 -0.4962,0.5272 -0.4962,1.4058 0,0.5582 0.2274,1.0027 0.2378,0.4341 0.6513,0.6822 0.4238,0.2481 0.9613,0.2481 0.7028,0 1.137,-0.3618 0.1964,-0.1447 0.3824,-0.1447 0.1448,0 0.2688,0.093 0.1964,0.1654 0.1964,0.3721 0,0.1551 -0.1241,0.2791 -0.7442,0.6925 -1.8605,0.6925 z"
         id="path9262"
         style="fill:#376d91;fill-opacity:1" />
      <path
         d="m 1432.2903,1797.0153 q 0.7133,0 1.2818,0.3101 0.5685,0.3101 0.8889,0.9096 0.3205,0.5892 0.3205,1.4265 v 2.5428 q 0,0.2274 -0.1551,0.3824 -0.1447,0.1447 -0.3721,0.1447 -0.2274,0 -0.3825,-0.1447 -0.1447,-0.155 -0.1447,-0.3824 v -2.5428 q 0,-0.8373 -0.4548,-1.2611 -0.4445,-0.4341 -1.1887,-0.4341 -0.4341,0 -0.7959,0.1757 -0.3515,0.1757 -0.5582,0.4755 -0.1964,0.2997 -0.1964,0.6718 v 2.915 q 0,0.2274 -0.1447,0.3824 -0.1447,0.1447 -0.3825,0.1447 -0.2274,0 -0.3824,-0.1447 -0.1447,-0.155 -0.1447,-0.3824 v -7.0289 q 0,-0.2378 0.1447,-0.3825 0.155,-0.1447 0.3824,-0.1447 0.2378,0 0.3825,0.1447 0.1447,0.1447 0.1447,0.3825 v 2.5324 q 0.3308,-0.3307 0.7856,-0.5064 0.4548,-0.1861 0.9716,-0.1861 z"
         id="path9264"
         style="fill:#376d91;fill-opacity:1" />
      <path
         d="m 1439.1021,1802.7624 q -0.8269,0 -1.4781,-0.3617 -0.6512,-0.3722 -1.013,-1.0234 -0.3618,-0.6512 -0.3618,-1.4781 0,-0.8373 0.3618,-1.4885 0.3618,-0.6512 1.013,-1.013 0.6512,-0.3721 1.4781,-0.3721 0.8166,0 1.4575,0.3721 0.6512,0.3618 1.013,1.013 0.3721,0.6512 0.3721,1.4885 0,0.8269 -0.3618,1.4781 -0.3618,0.6512 -1.013,1.0234 -0.6408,0.3617 -1.4678,0.3617 z m 0,-0.9302 q 0.5272,0 0.9407,-0.2481 0.4238,-0.2481 0.6512,-0.6822 0.2377,-0.4445 0.2377,-1.0027 0,-0.5582 -0.2377,-1.0026 -0.2274,-0.4445 -0.6512,-0.6926 -0.4135,-0.2481 -0.9407,-0.2481 -0.5271,0 -0.9509,0.2481 -0.4135,0.2481 -0.6512,0.6926 -0.2378,0.4444 -0.2378,1.0026 0,0.5582 0.2378,1.0027 0.2377,0.4341 0.6512,0.6822 0.4238,0.2481 0.9509,0.2481 z"
         id="path9266"
         style="fill:#376d91;fill-opacity:1" />
      <path
         d="m 1446.0793,1802.7624 q -0.8269,0 -1.4781,-0.3617 -0.6512,-0.3722 -1.013,-1.0234 -0.3618,-0.6512 -0.3618,-1.4781 0,-0.8373 0.3618,-1.4885 0.3618,-0.6512 1.013,-1.013 0.6512,-0.3721 1.4781,-0.3721 0.8166,0 1.4575,0.3721 0.6512,0.3618 1.013,1.013 0.3721,0.6512 0.3721,1.4885 0,0.8269 -0.3618,1.4781 -0.3618,0.6512 -1.013,1.0234 -0.6408,0.3617 -1.4678,0.3617 z m 0,-0.9302 q 0.5272,0 0.9407,-0.2481 0.4238,-0.2481 0.6512,-0.6822 0.2377,-0.4445 0.2377,-1.0027 0,-0.5582 -0.2377,-1.0026 -0.2274,-0.4445 -0.6512,-0.6926 -0.4135,-0.2481 -0.9407,-0.2481 -0.5271,0 -0.9509,0.2481 -0.4135,0.2481 -0.6512,0.6926 -0.2378,0.4444 -0.2378,1.0026 0,0.5582 0.2378,1.0027 0.2377,0.4341 0.6512,0.6822 0.4238,0.2481 0.9509,0.2481 z"
         id="path9268"
         style="fill:#376d91;fill-opacity:1" />
      <path
         d="m 1451.8368,1802.7211 q -0.4445,0 -0.8062,-0.2377 -0.3515,-0.2481 -0.5479,-0.6823 -0.1964,-0.4444 -0.1964,-0.9923 v -5.6438 q 0,-0.2274 0.1447,-0.3721 0.1447,-0.1447 0.3722,-0.1447 0.2274,0 0.3721,0.1447 0.1447,0.1447 0.1447,0.3721 v 5.6438 q 0,0.3825 0.1447,0.6306 0.1447,0.248 0.3721,0.248 h 0.2584 q 0.2068,0 0.3308,0.1448 0.1344,0.1447 0.1344,0.3721 0,0.2274 -0.1964,0.3721 -0.1964,0.1447 -0.5065,0.1447 z"
         id="path9270"
         style="fill:#376d91;fill-opacity:1" />
      <path
         d="m 1459.1861,1802.7624 q -0.8269,0 -1.4781,-0.3617 -0.6512,-0.3722 -1.013,-1.0234 -0.3618,-0.6512 -0.3618,-1.4781 0,-0.8373 0.3618,-1.4885 0.3618,-0.6512 1.013,-1.013 0.6512,-0.3721 1.4781,-0.3721 0.8166,0 1.4575,0.3721 0.6512,0.3618 1.013,1.013 0.3721,0.6512 0.3721,1.4885 0,0.8269 -0.3618,1.4781 -0.3618,0.6512 -1.013,1.0234 -0.6409,0.3617 -1.4678,0.3617 z m 0,-0.9302 q 0.5272,0 0.9407,-0.2481 0.4238,-0.2481 0.6512,-0.6822 0.2377,-0.4445 0.2377,-1.0027 0,-0.5582 -0.2377,-1.0026 -0.2274,-0.4445 -0.6512,-0.6926 -0.4135,-0.2481 -0.9407,-0.2481 -0.5271,0 -0.9509,0.2481 -0.4135,0.2481 -0.6513,0.6926 -0.2377,0.4444 -0.2377,1.0026 0,0.5582 0.2377,1.0027 0.2378,0.4341 0.6513,0.6822 0.4238,0.2481 0.9509,0.2481 z"
         id="path9272"
         style="fill:#376d91;fill-opacity:1" />
      <path
         d="m 1466.0393,1795.5992 q -0.5789,0 -0.9303,0.3824 -0.3515,0.3825 -0.3515,1.013 v 0.2791 h 1.0544 q 0.217,0 0.3514,0.124 0.1344,0.1241 0.1344,0.3308 0,0.1861 -0.1344,0.3101 -0.1344,0.1241 -0.3514,0.1241 h -1.0544 v 4.0312 q 0,0.2378 -0.1447,0.3825 -0.1447,0.1447 -0.4031,0.1447 -0.2067,0 -0.3618,-0.1447 -0.1447,-0.1447 -0.1447,-0.3825 v -4.0312 h -0.4445 q -0.217,0 -0.3514,-0.1241 -0.1344,-0.124 -0.1344,-0.3101 0,-0.2067 0.1344,-0.3308 0.1344,-0.124 0.3514,-0.124 h 0.4445 v -0.1757 q 0,-0.7339 0.2894,-1.2818 0.2998,-0.5581 0.827,-0.8579 0.5375,-0.3101 1.2197,-0.3101 0.2274,0 0.3721,0.1344 0.155,0.1344 0.155,0.3411 0,0.2067 -0.155,0.3411 -0.1447,0.1344 -0.3721,0.1344 z"
         id="path9274"
         style="fill:#376d91;fill-opacity:1" />
      <path
         d="m 1416.7958,1815.6419 q -0.2274,0 -0.3825,-0.1551 -0.155,-0.155 -0.155,-0.3824 v -6.9979 q 0,-0.2377 0.155,-0.3825 0.1551,-0.155 0.3825,-0.155 h 4.6721 q 0.2378,0 0.3825,0.1447 0.1447,0.1344 0.1447,0.3618 0,0.2171 -0.1447,0.3514 -0.1447,0.1344 -0.3825,0.1344 h -4.1346 v 2.5118 h 2.9666 q 0.2274,0 0.3721,0.1447 0.155,0.1344 0.155,0.3515 0,0.217 -0.155,0.3617 -0.1447,0.1344 -0.3721,0.1344 h -2.9666 v 2.5842 h 4.1346 q 0.2378,0 0.3825,0.1343 0.1447,0.1344 0.1447,0.3515 0,0.2274 -0.1447,0.3721 -0.1447,0.1344 -0.3825,0.1344 z"
         id="path9276"
         style="fill:#376d91;fill-opacity:1" />
      <path
         d="m 1429.3341,1809.9361 q 0.8992,0 1.4471,0.5892 0.5582,0.5891 0.5582,1.6435 v 2.9562 q 0,0.2275 -0.1448,0.3825 -0.1447,0.1447 -0.3824,0.1447 -0.2274,0 -0.3825,-0.1447 -0.1447,-0.155 -0.1447,-0.3825 v -2.9562 q 0,-0.6306 -0.3204,-0.951 -0.3101,-0.3308 -0.8373,-0.3308 -0.5375,0 -0.8889,0.3722 -0.3411,0.3721 -0.3411,0.9509 v 2.9149 q 0,0.2275 -0.1447,0.3825 -0.1448,0.1447 -0.3825,0.1447 -0.2274,0 -0.3825,-0.1447 -0.1447,-0.155 -0.1447,-0.3825 v -2.9562 q 0,-0.6306 -0.3204,-0.951 -0.3101,-0.3308 -0.8373,-0.3308 -0.5478,0 -0.8992,0.3722 -0.3412,0.3721 -0.3412,0.9509 v 2.9149 q 0,0.2275 -0.1447,0.3825 -0.1447,0.1447 -0.3824,0.1447 -0.2274,0 -0.3825,-0.1447 -0.1447,-0.155 -0.1447,-0.3825 v -4.5997 q 0,-0.2378 0.1447,-0.3825 0.1551,-0.1447 0.3825,-0.1447 0.2274,0 0.3721,0.1447 0.1447,0.1344 0.155,0.3618 0.2688,-0.2688 0.6409,-0.4135 0.3721,-0.155 0.8063,-0.155 0.5271,0 0.9406,0.217 0.4238,0.2068 0.6926,0.5996 0.3101,-0.3825 0.7752,-0.5996 0.4651,-0.217 1.0337,-0.217 z"
         id="path9278"
         style="fill:#376d91;fill-opacity:1" />
      <path
         d="m 1436.1355,1809.9464 q 0.7443,0 1.3438,0.3721 0.6099,0.3721 0.951,1.0337 0.3514,0.6512 0.3514,1.4574 0,0.8063 -0.3721,1.4678 -0.3721,0.6512 -1.0337,1.0337 -0.6512,0.3721 -1.4471,0.3721 -0.7959,0 -1.4471,-0.3721 -0.6409,-0.3825 -1.0233,-1.0337 -0.3722,-0.6615 -0.3722,-1.4678 v -4.7134 q 0,-0.2378 0.1448,-0.3825 0.155,-0.1447 0.3824,-0.1447 0.2377,0 0.3825,0.1447 0.1447,0.1447 0.1447,0.3825 v 2.7908 q 0.3618,-0.4444 0.8786,-0.6925 0.5168,-0.2481 1.1163,-0.2481 z m -0.2067,4.8065 q 0.5168,0 0.9303,-0.2481 0.4238,-0.2584 0.6615,-0.7028 0.2481,-0.4445 0.2481,-0.9924 0,-0.5478 -0.2481,-0.9819 -0.2377,-0.4445 -0.6615,-0.6926 -0.4135,-0.2584 -0.9303,-0.2584 -0.5168,0 -0.9406,0.2584 -0.4135,0.2481 -0.6512,0.6926 -0.2378,0.4341 -0.2378,0.9819 0,0.5479 0.2378,0.9924 0.2377,0.4444 0.6512,0.7028 0.4238,0.2481 0.9406,0.2481 z"
         id="path9280"
         style="fill:#376d91;fill-opacity:1" />
      <path
         d="m 1445.4281,1812.727 q 0,0.1963 -0.1343,0.3307 -0.1344,0.1241 -0.3412,0.1241 h -3.9279 q 0.1137,0.7235 0.6512,1.168 0.5479,0.4445 1.3335,0.4445 0.3101,0 0.6408,-0.1137 0.3411,-0.1137 0.5582,-0.2791 0.1447,-0.1137 0.3411,-0.1137 0.1964,0 0.3101,0.1033 0.1861,0.1551 0.1861,0.3515 0,0.186 -0.1654,0.3101 -0.3515,0.2791 -0.8786,0.4548 -0.5168,0.1757 -0.9923,0.1757 -0.8476,0 -1.5195,-0.3618 -0.6719,-0.3721 -1.0543,-1.0233 -0.3722,-0.6512 -0.3722,-1.4781 0,-0.8269 0.3515,-1.4782 0.3618,-0.6615 0.9923,-1.0233 0.6409,-0.3721 1.4471,-0.3721 0.7959,0 1.3748,0.3515 0.5788,0.3514 0.8889,0.9819 0.3101,0.6306 0.3101,1.4472 z m -2.5738,-1.8916 q -0.7546,0 -1.23,0.4134 -0.4652,0.4135 -0.5892,1.106 h 3.4421 q -0.093,-0.6925 -0.5169,-1.106 -0.4238,-0.4134 -1.106,-0.4134 z"
         id="path9282"
         style="fill:#376d91;fill-opacity:1" />
      <path
         d="m 1451.444,1807.569 q 0.2378,0 0.3825,0.1447 0.1447,0.1447 0.1447,0.3825 v 4.7134 q 0,0.8063 -0.3825,1.4678 -0.3721,0.6512 -1.0233,1.0337 -0.6409,0.3721 -1.4368,0.3721 -0.7959,0 -1.4574,-0.3721 -0.6513,-0.3825 -1.0234,-1.0337 -0.3721,-0.6615 -0.3721,-1.4678 0,-0.8062 0.3411,-1.4574 0.3515,-0.6616 0.951,-1.0337 0.6098,-0.3721 1.3541,-0.3721 0.5995,0 1.1163,0.2481 0.5169,0.2481 0.8786,0.6925 v -2.7908 q 0,-0.2378 0.1448,-0.3825 0.155,-0.1447 0.3824,-0.1447 z m -2.3154,7.1839 q 0.5168,0 0.9303,-0.2481 0.4238,-0.2584 0.6615,-0.7028 0.2378,-0.4445 0.2378,-0.9924 0,-0.5478 -0.2378,-0.9819 -0.2377,-0.4445 -0.6615,-0.6926 -0.4135,-0.2584 -0.9303,-0.2584 -0.5168,0 -0.9406,0.2584 -0.4135,0.2481 -0.6616,0.6926 -0.2377,0.4341 -0.2377,0.9819 0,0.5479 0.2377,0.9924 0.2481,0.4444 0.6616,0.7028 0.4238,0.2481 0.9406,0.2481 z"
         id="path9284"
         style="fill:#376d91;fill-opacity:1" />
      <path
         d="m 1458.7106,1807.569 q 0.2378,0 0.3825,0.1447 0.1447,0.1447 0.1447,0.3825 v 4.7134 q 0,0.8063 -0.3825,1.4678 -0.3721,0.6512 -1.0233,1.0337 -0.6408,0.3721 -1.4368,0.3721 -0.7959,0 -1.4574,-0.3721 -0.6512,-0.3825 -1.0234,-1.0337 -0.3721,-0.6615 -0.3721,-1.4678 0,-0.8062 0.3411,-1.4574 0.3515,-0.6616 0.951,-1.0337 0.6099,-0.3721 1.3541,-0.3721 0.5995,0 1.1164,0.2481 0.5168,0.2481 0.8786,0.6925 v -2.7908 q 0,-0.2378 0.1447,-0.3825 0.155,-0.1447 0.3824,-0.1447 z m -2.3154,7.1839 q 0.5169,0 0.9303,-0.2481 0.4238,-0.2584 0.6616,-0.7028 0.2377,-0.4445 0.2377,-0.9924 0,-0.5478 -0.2377,-0.9819 -0.2378,-0.4445 -0.6616,-0.6926 -0.4134,-0.2584 -0.9303,-0.2584 -0.5168,0 -0.9406,0.2584 -0.4135,0.2481 -0.6615,0.6926 -0.2378,0.4341 -0.2378,0.9819 0,0.5479 0.2378,0.9924 0.248,0.4444 0.6615,0.7028 0.4238,0.2481 0.9406,0.2481 z"
         id="path9286"
         style="fill:#376d91;fill-opacity:1" />
      <path
         d="m 1466.1736,1812.727 q 0,0.1963 -0.1343,0.3307 -0.1344,0.1241 -0.3411,0.1241 h -3.9279 q 0.1137,0.7235 0.6512,1.168 0.5478,0.4445 1.3334,0.4445 0.3101,0 0.6409,-0.1137 0.3411,-0.1137 0.5581,-0.2791 0.1447,-0.1137 0.3411,-0.1137 0.1964,0 0.3101,0.1033 0.1861,0.1551 0.1861,0.3515 0,0.186 -0.1654,0.3101 -0.3514,0.2791 -0.8786,0.4548 -0.5168,0.1757 -0.9923,0.1757 -0.8476,0 -1.5195,-0.3618 -0.6719,-0.3721 -1.0543,-1.0233 -0.3721,-0.6512 -0.3721,-1.4781 0,-0.8269 0.3514,-1.4782 0.3618,-0.6615 0.9923,-1.0233 0.6409,-0.3721 1.4471,-0.3721 0.796,0 1.3748,0.3515 0.5789,0.3514 0.8889,0.9819 0.3101,0.6306 0.3101,1.4472 z m -2.5738,-1.8916 q -0.7545,0 -1.23,0.4134 -0.4652,0.4135 -0.5892,1.106 h 3.4421 q -0.093,-0.6925 -0.5168,-1.106 -0.4238,-0.4134 -1.1061,-0.4134 z"
         id="path9288"
         style="fill:#376d91;fill-opacity:1" />
      <path
         d="m 1472.1895,1807.569 q 0.2378,0 0.3825,0.1447 0.1447,0.1447 0.1447,0.3825 v 4.7134 q 0,0.8063 -0.3825,1.4678 -0.3721,0.6512 -1.0233,1.0337 -0.6409,0.3721 -1.4368,0.3721 -0.7959,0 -1.4574,-0.3721 -0.6512,-0.3825 -1.0234,-1.0337 -0.3721,-0.6615 -0.3721,-1.4678 0,-0.8062 0.3411,-1.4574 0.3515,-0.6616 0.951,-1.0337 0.6099,-0.3721 1.3541,-0.3721 0.5995,0 1.1164,0.2481 0.5168,0.2481 0.8786,0.6925 v -2.7908 q 0,-0.2378 0.1447,-0.3825 0.155,-0.1447 0.3824,-0.1447 z m -2.3154,7.1839 q 0.5169,0 0.9303,-0.2481 0.4238,-0.2584 0.6616,-0.7028 0.2377,-0.4445 0.2377,-0.9924 0,-0.5478 -0.2377,-0.9819 -0.2378,-0.4445 -0.6616,-0.6926 -0.4134,-0.2584 -0.9303,-0.2584 -0.5168,0 -0.9406,0.2584 -0.4135,0.2481 -0.6615,0.6926 -0.2378,0.4341 -0.2378,0.9819 0,0.5479 0.2378,0.9924 0.248,0.4444 0.6615,0.7028 0.4238,0.2481 0.9406,0.2481 z"
         id="path9290"
         style="fill:#376d91;fill-opacity:1" />
      <path
         d="m 1481.3271,1815.7452 q -1.106,0 -2.026,-0.5478 -0.9096,-0.5478 -1.4368,-1.4988 -0.5272,-0.951 -0.5272,-2.0983 0,-1.1371 0.5272,-2.0777 0.5272,-0.951 1.4368,-1.4988 0.92,-0.5582 2.026,-0.5582 0.7855,0 1.3541,0.2068 0.5788,0.2067 1.168,0.6822 0.124,0.093 0.1654,0.1964 0.041,0.093 0.041,0.2274 0,0.2067 -0.155,0.3411 -0.1447,0.1344 -0.3411,0.1344 -0.1964,0 -0.3618,-0.1344 -0.4238,-0.3618 -0.8269,-0.5168 -0.4032,-0.1654 -1.044,-0.1654 -0.8063,0 -1.4885,0.4238 -0.6719,0.4238 -1.075,1.1577 -0.3928,0.7235 -0.3928,1.5815 0,0.8682 0.3928,1.5918 0.4031,0.7236 1.075,1.1474 0.6822,0.4238 1.4885,0.4238 0.9923,0 1.9019,-0.6823 0.1757,-0.124 0.3411,-0.124 0.1964,0 0.3204,0.1447 0.1344,0.1344 0.1344,0.3618 0,0.2171 -0.1654,0.3825 -1.1163,0.8992 -2.5324,0.8992 z"
         id="path9292"
         style="fill:#376d91;fill-opacity:1" />
      <path
         d="m 1487.7874,1815.6832 q -0.8269,0 -1.4781,-0.3618 -0.6512,-0.3721 -1.013,-1.0233 -0.3618,-0.6512 -0.3618,-1.4781 0,-0.8373 0.3618,-1.4885 0.3618,-0.6512 1.013,-1.013 0.6512,-0.3721 1.4781,-0.3721 0.8166,0 1.4575,0.3721 0.6512,0.3618 1.013,1.013 0.3721,0.6512 0.3721,1.4885 0,0.8269 -0.3618,1.4781 -0.3618,0.6512 -1.013,1.0233 -0.6409,0.3618 -1.4678,0.3618 z m 0,-0.9303 q 0.5272,0 0.9406,-0.2481 0.4238,-0.248 0.6513,-0.6822 0.2377,-0.4444 0.2377,-1.0026 0,-0.5582 -0.2377,-1.0027 -0.2275,-0.4444 -0.6513,-0.6925 -0.4134,-0.2481 -0.9406,-0.2481 -0.5271,0 -0.9509,0.2481 -0.4135,0.2481 -0.6513,0.6925 -0.2377,0.4445 -0.2377,1.0027 0,0.5582 0.2377,1.0026 0.2378,0.4342 0.6513,0.6822 0.4238,0.2481 0.9509,0.2481 z"
         id="path9294"
         style="fill:#376d91;fill-opacity:1" />
      <path
         d="m 1498.1447,1809.9361 q 0.8993,0 1.4471,0.5892 0.5582,0.5891 0.5582,1.6435 v 2.9562 q 0,0.2275 -0.1447,0.3825 -0.1447,0.1447 -0.3825,0.1447 -0.2274,0 -0.3824,-0.1447 -0.1448,-0.155 -0.1448,-0.3825 v -2.9562 q 0,-0.6306 -0.3204,-0.951 -0.3101,-0.3308 -0.8372,-0.3308 -0.5376,0 -0.889,0.3722 -0.3411,0.3721 -0.3411,0.9509 v 2.9149 q 0,0.2275 -0.1447,0.3825 -0.1447,0.1447 -0.3825,0.1447 -0.2274,0 -0.3824,-0.1447 -0.1447,-0.155 -0.1447,-0.3825 v -2.9562 q 0,-0.6306 -0.3205,-0.951 -0.3101,-0.3308 -0.8372,-0.3308 -0.5479,0 -0.8993,0.3722 -0.3411,0.3721 -0.3411,0.9509 v 2.9149 q 0,0.2275 -0.1447,0.3825 -0.1448,0.1447 -0.3825,0.1447 -0.2274,0 -0.3825,-0.1447 -0.1447,-0.155 -0.1447,-0.3825 v -4.5997 q 0,-0.2378 0.1447,-0.3825 0.1551,-0.1447 0.3825,-0.1447 0.2274,0 0.3721,0.1447 0.1447,0.1344 0.1551,0.3618 0.2687,-0.2688 0.6408,-0.4135 0.3722,-0.155 0.8063,-0.155 0.5272,0 0.9406,0.217 0.4238,0.2068 0.6926,0.5996 0.3101,-0.3825 0.7752,-0.5996 0.4652,-0.217 1.0337,-0.217 z"
         id="path9296"
         style="fill:#376d91;fill-opacity:1" />
      <path
         d="m 1504.7394,1809.9464 q 0.7959,0 1.4472,0.3825 0.6615,0.3721 1.0336,1.0336 0.3721,0.6512 0.3721,1.4575 0,0.8062 -0.3514,1.4678 -0.3411,0.6512 -0.951,1.0233 -0.5995,0.3721 -1.3437,0.3721 -0.5996,0 -1.1164,-0.2481 -0.5168,-0.248 -0.8786,-0.6925 v 2.7909 q 0,0.2377 -0.1447,0.3824 -0.1447,0.1447 -0.3825,0.1447 -0.2274,0 -0.3824,-0.1447 -0.1447,-0.1447 -0.1447,-0.3824 v -4.7135 q 0,-0.8063 0.3721,-1.4575 0.3824,-0.6615 1.0233,-1.0336 0.6512,-0.3825 1.4471,-0.3825 z m 0,4.8065 q 0.5169,0 0.9303,-0.2481 0.4238,-0.2584 0.6616,-0.6925 0.248,-0.4445 0.248,-0.9923 0,-0.5479 -0.248,-0.9923 -0.2378,-0.4445 -0.6616,-0.6926 -0.4134,-0.2584 -0.9303,-0.2584 -0.5168,0 -0.9406,0.2584 -0.4135,0.2481 -0.6512,0.6926 -0.2378,0.4444 -0.2378,0.9923 0,0.5478 0.2378,0.9923 0.2377,0.4341 0.6512,0.6925 0.4238,0.2481 0.9406,0.2481 z"
         id="path9298"
         style="fill:#376d91;fill-opacity:1" />
      <path
         d="m 1511.727,1815.6832 q -0.827,0 -1.4782,-0.3618 -0.6512,-0.3721 -1.013,-1.0233 -0.3617,-0.6512 -0.3617,-1.4781 0,-0.8373 0.3617,-1.4885 0.3618,-0.6512 1.013,-1.013 0.6512,-0.3721 1.4782,-0.3721 0.8166,0 1.4574,0.3721 0.6512,0.3618 1.013,1.013 0.3721,0.6512 0.3721,1.4885 0,0.8269 -0.3618,1.4781 -0.3617,0.6512 -1.0129,1.0233 -0.6409,0.3618 -1.4678,0.3618 z m 0,-0.9303 q 0.5271,0 0.9406,-0.2481 0.4238,-0.248 0.6512,-0.6822 0.2377,-0.4444 0.2377,-1.0026 0,-0.5582 -0.2377,-1.0027 -0.2274,-0.4444 -0.6512,-0.6925 -0.4135,-0.2481 -0.9406,-0.2481 -0.5272,0 -0.951,0.2481 -0.4135,0.2481 -0.6512,0.6925 -0.2378,0.4445 -0.2378,1.0027 0,0.5582 0.2378,1.0026 0.2377,0.4342 0.6512,0.6822 0.4238,0.2481 0.951,0.2481 z"
         id="path9300"
         style="fill:#376d91;fill-opacity:1" />
      <path
         d="m 1518.1977,1815.6832 q -0.7029,0 -1.3231,-0.217 -0.6202,-0.2171 -0.9717,-0.5686 -0.1343,-0.1343 -0.1343,-0.3204 0,-0.2481 0.2067,-0.4031 0.1964,-0.1447 0.3618,-0.1447 0.2067,0 0.3928,0.186 0.1964,0.2171 0.5892,0.3825 0.3927,0.155 0.8372,0.155 0.5892,0 0.9096,-0.1964 0.3308,-0.1964 0.3308,-0.5271 0,-0.3205 -0.3204,-0.5272 -0.3205,-0.2171 -1.0854,-0.3618 -1.9846,-0.3824 -1.9846,-1.6332 0,-0.5065 0.2998,-0.8579 0.2997,-0.3514 0.7855,-0.5272 0.4859,-0.1757 1.0337,-0.1757 0.6719,0 1.1991,0.2171 0.5375,0.217 0.8476,0.5995 0.1343,0.1654 0.1343,0.3308 0,0.1757 -0.1757,0.3204 -0.1137,0.083 -0.2894,0.083 -0.2688,0 -0.4858,-0.1964 -0.2585,-0.2377 -0.5479,-0.3308 -0.2894,-0.1033 -0.7029,-0.1033 -0.4754,0 -0.7855,0.1654 -0.2998,0.155 -0.2998,0.4444 0,0.2068 0.1034,0.3515 0.1033,0.1343 0.3928,0.2584 0.2894,0.1137 0.8372,0.2274 1.1267,0.2274 1.5919,0.6305 0.4754,0.4031 0.4754,1.044 0,0.4755 -0.2584,0.8683 -0.2584,0.3824 -0.7649,0.6099 -0.4961,0.217 -1.199,0.217 z"
         id="path9302"
         style="fill:#376d91;fill-opacity:1" />
      <path
         d="m 1522.384,1815.6419 q -0.2274,0 -0.3825,-0.1447 -0.1447,-0.1551 -0.1447,-0.3825 v -4.5998 q 0,-0.2377 0.1447,-0.3824 0.1551,-0.1447 0.3825,-0.1447 0.2377,0 0.3824,0.1447 0.1448,0.1447 0.1448,0.3824 v 4.5998 q 0,0.2274 -0.1448,0.3825 -0.1447,0.1447 -0.3824,0.1447 z m 0,-6.5741 q -0.2791,0 -0.4858,-0.1964 -0.1964,-0.2067 -0.1964,-0.4858 0,-0.2791 0.1964,-0.4755 0.2067,-0.2067 0.4858,-0.2067 0.2791,0 0.4755,0.2067 0.2067,0.1964 0.2067,0.4755 0,0.2791 -0.2067,0.4858 -0.1964,0.1964 -0.4755,0.1964 z"
         id="path9304"
         style="fill:#376d91;fill-opacity:1" />
      <path
         d="m 1527.2835,1814.6082 q 0.1861,0 0.3101,0.1447 0.1344,0.1447 0.1344,0.3721 0,0.2275 -0.1757,0.3722 -0.1654,0.1447 -0.4342,0.1447 h -0.186 q -0.5065,0 -0.9303,-0.2584 -0.4135,-0.2688 -0.6512,-0.7236 -0.2378,-0.4548 -0.2378,-1.0233 v -2.5532 h -0.4755 q -0.217,0 -0.3514,-0.124 -0.1344,-0.124 -0.1344,-0.3101 0,-0.2067 0.1344,-0.3308 0.1344,-0.124 0.3514,-0.124 h 0.4755 v -1.4885 q 0,-0.2274 0.1447,-0.3721 0.1447,-0.1447 0.3722,-0.1447 0.2274,0 0.3721,0.1447 0.1447,0.1447 0.1447,0.3721 v 1.4885 h 0.8786 q 0.2171,0 0.3514,0.124 0.1344,0.1241 0.1344,0.3308 0,0.1861 -0.1344,0.3101 -0.1343,0.124 -0.3514,0.124 h -0.8786 v 2.5532 q 0,0.4134 0.2274,0.6925 0.2274,0.2791 0.5582,0.2791 z"
         id="path9306"
         style="fill:#376d91;fill-opacity:1" />
      <path
         d="m 1534.0953,1812.727 q 0,0.1963 -0.1344,0.3307 -0.1343,0.1241 -0.3411,0.1241 h -3.9279 q 0.1137,0.7235 0.6512,1.168 0.5479,0.4445 1.3335,0.4445 0.3101,0 0.6408,-0.1137 0.3411,-0.1137 0.5582,-0.2791 0.1447,-0.1137 0.3411,-0.1137 0.1964,0 0.3101,0.1033 0.1861,0.1551 0.1861,0.3515 0,0.186 -0.1654,0.3101 -0.3515,0.2791 -0.8786,0.4548 -0.5169,0.1757 -0.9923,0.1757 -0.8476,0 -1.5195,-0.3618 -0.6719,-0.3721 -1.0544,-1.0233 -0.3721,-0.6512 -0.3721,-1.4781 0,-0.8269 0.3515,-1.4782 0.3618,-0.6615 0.9923,-1.0233 0.6409,-0.3721 1.4471,-0.3721 0.7959,0 1.3748,0.3515 0.5788,0.3514 0.8889,0.9819 0.3101,0.6306 0.3101,1.4472 z m -2.5738,-1.8916 q -0.7546,0 -1.23,0.4134 -0.4652,0.4135 -0.5892,1.106 h 3.4421 q -0.093,-0.6925 -0.5169,-1.106 -0.4238,-0.4134 -1.106,-0.4134 z"
         id="path9308"
         style="fill:#376d91;fill-opacity:1" />
      <path
         d="m 1422.2948,1827.8081 q 0.052,0.1344 0.052,0.2274 0,0.2171 -0.155,0.3721 -0.1551,0.1551 -0.3825,0.1551 -0.155,0 -0.2997,-0.083 -0.1344,-0.093 -0.1964,-0.2481 l -0.5789,-1.4471 h -3.7108 l -0.5892,1.4471 q -0.072,0.155 -0.2067,0.2481 -0.1344,0.083 -0.2895,0.083 -0.2274,0 -0.3824,-0.1551 -0.1447,-0.1654 -0.1447,-0.3825 0,-0.1033 0.052,-0.2377 l 2.9045,-6.9359 q 0.1551,-0.3617 0.5065,-0.3617 0.3721,0 0.5065,0.3617 z m -4.9098,-1.9123 h 2.9872 l -1.4781,-3.6798 z"
         id="path9310"
         style="fill:#376d91;fill-opacity:1" />
      <path
         d="m 1426.1917,1822.8465 q 0.5479,0 0.858,0.1654 0.3101,0.1654 0.3101,0.4135 0,0.072 -0.01,0.1033 -0.093,0.3308 -0.4134,0.3308 -0.052,0 -0.1551,-0.021 -0.4134,-0.072 -0.6719,-0.072 -0.7442,0 -1.199,0.3411 -0.4548,0.3411 -0.4548,0.9199 v 3.0183 q 0,0.2481 -0.1344,0.3825 -0.124,0.1344 -0.3824,0.1344 -0.2481,0 -0.3825,-0.1241 -0.1344,-0.1344 -0.1344,-0.3928 v -4.6204 q 0,-0.2481 0.1344,-0.3825 0.1344,-0.1344 0.3825,-0.1344 0.5168,0 0.5168,0.5169 v 0.1964 q 0.3101,-0.3618 0.7649,-0.5686 0.4548,-0.2067 0.9716,-0.2067 z"
         id="path9312"
         style="fill:#376d91;fill-opacity:1" />
      <path
         d="m 1430.8535,1827.529 q 0.1861,0 0.3101,0.1447 0.1344,0.1447 0.1344,0.3721 0,0.2274 -0.1757,0.3721 -0.1654,0.1448 -0.4342,0.1448 h -0.186 q -0.5065,0 -0.9303,-0.2585 -0.4135,-0.2687 -0.6512,-0.7235 -0.2378,-0.4548 -0.2378,-1.0233 v -2.5532 h -0.4754 q -0.2171,0 -0.3515,-0.124 -0.1344,-0.1241 -0.1344,-0.3101 0,-0.2068 0.1344,-0.3308 0.1344,-0.124 0.3515,-0.124 h 0.4754 v -1.4885 q 0,-0.2274 0.1447,-0.3721 0.1448,-0.1447 0.3722,-0.1447 0.2274,0 0.3721,0.1447 0.1447,0.1447 0.1447,0.3721 v 1.4885 h 0.8786 q 0.2171,0 0.3515,0.124 0.1343,0.124 0.1343,0.3308 0,0.186 -0.1343,0.3101 -0.1344,0.124 -0.3515,0.124 h -0.8786 v 2.5532 q 0,0.4134 0.2274,0.6925 0.2274,0.2791 0.5582,0.2791 z"
         id="path9314"
         style="fill:#376d91;fill-opacity:1" />
      <path
         d="m 1433.2206,1828.5627 q -0.2274,0 -0.3825,-0.1448 -0.1447,-0.155 -0.1447,-0.3824 v -4.5998 q 0,-0.2377 0.1447,-0.3825 0.1551,-0.1447 0.3825,-0.1447 0.2377,0 0.3824,0.1447 0.1448,0.1448 0.1448,0.3825 v 4.5998 q 0,0.2274 -0.1448,0.3824 -0.1447,0.1448 -0.3824,0.1448 z m 0,-6.5741 q -0.2791,0 -0.4858,-0.1964 -0.1964,-0.2068 -0.1964,-0.4858 0,-0.2791 0.1964,-0.4755 0.2067,-0.2068 0.4858,-0.2068 0.2791,0 0.4755,0.2068 0.2067,0.1964 0.2067,0.4755 0,0.279 -0.2067,0.4858 -0.1964,0.1964 -0.4755,0.1964 z"
         id="path9316"
         style="fill:#376d91;fill-opacity:1" />
      <path
         d="m 1437.9341,1823.1153 q 0.217,0 0.3514,0.124 0.1344,0.124 0.1344,0.3308 0,0.186 -0.1344,0.3101 -0.1344,0.124 -0.3514,0.124 h -1.0647 v 4.0313 q 0,0.2171 -0.1551,0.3721 -0.1447,0.1551 -0.3721,0.1551 -0.2274,0 -0.3824,-0.1551 -0.1447,-0.155 -0.1447,-0.3721 v -4.0313 h -0.4445 q -0.2171,0 -0.3515,-0.124 -0.1343,-0.1241 -0.1343,-0.3101 0,-0.2068 0.1343,-0.3308 0.1344,-0.124 0.3515,-0.124 h 0.4445 v -0.1758 q 0,-1.199 0.7235,-1.8605 0.7236,-0.6616 2.2431,-0.6616 0.7442,0 1.1887,0.2481 0.4548,0.2481 0.4548,0.6409 0,0.4548 -0.5582,0.4548 -0.1861,0 -0.3514,-0.072 -0.1551,-0.083 -0.3515,-0.2274 -0.2481,-0.1654 -0.4238,-0.2377 -0.1654,-0.083 -0.3824,-0.083 -1.4885,0 -1.4885,1.7985 v 0.1758 z m 1.8502,-0.2068 q 0.2378,0 0.3825,0.1447 0.1447,0.1448 0.1447,0.3825 v 4.5998 q 0,0.2274 -0.1447,0.3824 -0.1447,0.1448 -0.3825,0.1448 -0.2274,0 -0.3824,-0.1448 -0.1448,-0.155 -0.1448,-0.3824 v -4.5998 q 0,-0.2377 0.1448,-0.3825 0.155,-0.1447 0.3824,-0.1447 z"
         id="path9318"
         style="fill:#376d91;fill-opacity:1" />
      <path
         d="m 1444.7976,1828.604 q -0.8166,0 -1.4678,-0.3721 -0.6513,-0.3721 -1.0234,-1.0233 -0.3618,-0.6616 -0.3618,-1.4678 0,-0.827 0.3515,-1.4782 0.3618,-0.6615 1.0026,-1.0233 0.6409,-0.3721 1.4472,-0.3721 1.2197,0 2.0259,0.9303 0.1034,0.1137 0.1034,0.2687 0,0.2274 -0.2274,0.3825 -0.1034,0.072 -0.2377,0.072 -0.2378,0 -0.4032,-0.186 -0.2584,-0.2791 -0.5685,-0.4031 -0.2997,-0.1344 -0.6925,-0.1344 -0.796,0 -1.2921,0.5375 -0.4962,0.5271 -0.4962,1.4058 0,0.5581 0.2274,1.0026 0.2378,0.4341 0.6512,0.6822 0.4238,0.2481 0.9614,0.2481 0.7028,0 1.137,-0.3618 0.1964,-0.1447 0.3824,-0.1447 0.1447,0 0.2688,0.093 0.1964,0.1654 0.1964,0.3722 0,0.155 -0.1241,0.279 -0.7442,0.6926 -1.8605,0.6926 z"
         id="path9320"
         style="fill:#376d91;fill-opacity:1" />
      <path
         d="m 1449.0769,1828.5627 q -0.2274,0 -0.3825,-0.1448 -0.1447,-0.155 -0.1447,-0.3824 v -4.5998 q 0,-0.2377 0.1447,-0.3825 0.1551,-0.1447 0.3825,-0.1447 0.2377,0 0.3825,0.1447 0.1447,0.1448 0.1447,0.3825 v 4.5998 q 0,0.2274 -0.1447,0.3824 -0.1448,0.1448 -0.3825,0.1448 z m 0,-6.5741 q -0.2791,0 -0.4858,-0.1964 -0.1964,-0.2068 -0.1964,-0.4858 0,-0.2791 0.1964,-0.4755 0.2067,-0.2068 0.4858,-0.2068 0.2791,0 0.4755,0.2068 0.2067,0.1964 0.2067,0.4755 0,0.279 -0.2067,0.4858 -0.1964,0.1964 -0.4755,0.1964 z"
         id="path9322"
         style="fill:#376d91;fill-opacity:1" />
      <path
         d="m 1454.1315,1822.8672 q 0.7959,0 1.4368,0.3824 0.6512,0.3722 1.0233,1.0337 0.3824,0.6512 0.3824,1.4575 v 2.305 q 0,0.2274 -0.155,0.3825 -0.1447,0.1447 -0.3721,0.1447 -0.2274,0 -0.3825,-0.1447 -0.1447,-0.1551 -0.1447,-0.3825 v -0.3824 q -0.3618,0.4444 -0.8786,0.6925 -0.5168,0.2481 -1.1164,0.2481 -0.7442,0 -1.354,-0.3721 -0.5996,-0.3721 -0.951,-1.0233 -0.3411,-0.6616 -0.3411,-1.4678 0,-0.8063 0.3721,-1.4575 0.3721,-0.6615 1.0233,-1.0337 0.6616,-0.3824 1.4575,-0.3824 z m 0,4.8065 q 0.5168,0 0.9303,-0.2481 0.4238,-0.2584 0.6615,-0.6925 0.2378,-0.4445 0.2378,-0.9923 0,-0.5479 -0.2378,-0.9924 -0.2377,-0.4444 -0.6615,-0.6925 -0.4135,-0.2584 -0.9303,-0.2584 -0.5168,0 -0.9406,0.2584 -0.4135,0.2481 -0.6616,0.6925 -0.2377,0.4445 -0.2377,0.9924 0,0.5478 0.2377,0.9923 0.2481,0.4341 0.6616,0.6925 0.4238,0.2481 0.9406,0.2481 z"
         id="path9324"
         style="fill:#376d91;fill-opacity:1" />
      <path
         d="m 1459.889,1828.5627 q -0.4445,0 -0.8063,-0.2378 -0.3514,-0.2481 -0.5478,-0.6822 -0.1964,-0.4445 -0.1964,-0.9923 v -5.6438 q 0,-0.2274 0.1447,-0.3721 0.1447,-0.1447 0.3721,-0.1447 0.2274,0 0.3721,0.1447 0.1447,0.1447 0.1447,0.3721 v 5.6438 q 0,0.3824 0.1447,0.6305 0.1448,0.2481 0.3722,0.2481 h 0.2584 q 0.2067,0 0.3307,0.1447 0.1344,0.1447 0.1344,0.3721 0,0.2274 -0.1964,0.3721 -0.1964,0.1448 -0.5065,0.1448 z"
         id="path9326"
         style="fill:#376d91;fill-opacity:1" />
      <path
         d="m 1465.3157,1828.5627 q -0.2274,0 -0.3825,-0.1551 -0.155,-0.155 -0.155,-0.3825 v -6.9978 q 0,-0.2378 0.155,-0.3825 0.1551,-0.155 0.3825,-0.155 0.2377,0 0.3824,0.155 0.1551,0.1447 0.1551,0.3825 v 6.9978 q 0,0.2275 -0.1551,0.3825 -0.1447,0.1551 -0.3824,0.1551 z"
         id="path9328"
         style="fill:#376d91;fill-opacity:1" />
      <path
         d="m 1470.6287,1822.8568 q 0.7132,0 1.2817,0.3101 0.5685,0.3101 0.8889,0.9097 0.3205,0.5892 0.3205,1.4264 v 2.5428 q 0,0.2274 -0.1551,0.3825 -0.1447,0.1447 -0.3721,0.1447 -0.2274,0 -0.3824,-0.1447 -0.1448,-0.1551 -0.1448,-0.3825 v -2.5428 q 0,-0.8372 -0.4548,-1.261 -0.4444,-0.4342 -1.1887,-0.4342 -0.4341,0 -0.7959,0.1757 -0.3514,0.1758 -0.5582,0.4755 -0.1964,0.2998 -0.1964,0.6719 v 2.9149 q 0,0.2274 -0.1447,0.3825 -0.1447,0.1447 -0.3824,0.1447 -0.2274,0 -0.3825,-0.1447 -0.1447,-0.1551 -0.1447,-0.3825 v -4.6101 q 0,-0.2377 0.1447,-0.3825 0.1551,-0.1447 0.3825,-0.1447 0.2377,0 0.3824,0.1447 0.1447,0.1448 0.1447,0.3825 v 0.1137 q 0.3308,-0.3308 0.7856,-0.5065 0.4548,-0.1861 0.9717,-0.1861 z"
         id="path9330"
         style="fill:#376d91;fill-opacity:1" />
      <path
         d="m 1477.2751,1827.529 q 0.186,0 0.3101,0.1447 0.1344,0.1447 0.1344,0.3721 0,0.2274 -0.1758,0.3721 -0.1653,0.1448 -0.4341,0.1448 h -0.1861 q -0.5065,0 -0.9303,-0.2585 -0.4134,-0.2687 -0.6512,-0.7235 -0.2377,-0.4548 -0.2377,-1.0233 v -2.5532 h -0.4755 q -0.2171,0 -0.3514,-0.124 -0.1344,-0.1241 -0.1344,-0.3101 0,-0.2068 0.1344,-0.3308 0.1343,-0.124 0.3514,-0.124 h 0.4755 v -1.4885 q 0,-0.2274 0.1447,-0.3721 0.1447,-0.1447 0.3721,-0.1447 0.2274,0 0.3721,0.1447 0.1448,0.1447 0.1448,0.3721 v 1.4885 h 0.8786 q 0.217,0 0.3514,0.124 0.1344,0.124 0.1344,0.3308 0,0.186 -0.1344,0.3101 -0.1344,0.124 -0.3514,0.124 h -0.8786 v 2.5532 q 0,0.4134 0.2274,0.6925 0.2274,0.2791 0.5581,0.2791 z"
         id="path9332"
         style="fill:#376d91;fill-opacity:1" />
      <path
         d="m 1484.0869,1825.6477 q 0,0.1964 -0.1344,0.3308 -0.1344,0.124 -0.3411,0.124 h -3.9279 q 0.1137,0.7236 0.6512,1.1681 0.5478,0.4445 1.3334,0.4445 0.3101,0 0.6409,-0.1138 0.3411,-0.1137 0.5582,-0.279 0.1447,-0.1137 0.3411,-0.1137 0.1964,0 0.3101,0.1033 0.186,0.1551 0.186,0.3515 0,0.186 -0.1653,0.3101 -0.3515,0.2791 -0.8787,0.4548 -0.5168,0.1757 -0.9923,0.1757 -0.8476,0 -1.5195,-0.3618 -0.6718,-0.3721 -1.0543,-1.0233 -0.3721,-0.6512 -0.3721,-1.4781 0,-0.827 0.3514,-1.4782 0.3618,-0.6615 0.9924,-1.0233 0.6408,-0.3721 1.4471,-0.3721 0.7959,0 1.3747,0.3514 0.5789,0.3515 0.889,0.982 0.3101,0.6305 0.3101,1.4471 z m -2.5738,-1.8916 q -0.7546,0 -1.2301,0.4135 -0.4651,0.4135 -0.5892,1.106 h 3.4421 q -0.093,-0.6925 -0.5168,-1.106 -0.4238,-0.4135 -1.106,-0.4135 z"
         id="path9334"
         style="fill:#376d91;fill-opacity:1" />
      <path
         d="m 1486.7744,1828.5627 q -0.4445,0 -0.8063,-0.2378 -0.3514,-0.2481 -0.5478,-0.6822 -0.1964,-0.4445 -0.1964,-0.9923 v -5.6438 q 0,-0.2274 0.1447,-0.3721 0.1447,-0.1447 0.3721,-0.1447 0.2274,0 0.3722,0.1447 0.1447,0.1447 0.1447,0.3721 v 5.6438 q 0,0.3824 0.1447,0.6305 0.1447,0.2481 0.3721,0.2481 h 0.2584 q 0.2067,0 0.3308,0.1447 0.1344,0.1447 0.1344,0.3721 0,0.2274 -0.1964,0.3721 -0.1964,0.1448 -0.5065,0.1448 z"
         id="path9336"
         style="fill:#376d91;fill-opacity:1" />
      <path
         d="m 1489.8754,1828.5627 q -0.4445,0 -0.8063,-0.2378 -0.3514,-0.2481 -0.5478,-0.6822 -0.1964,-0.4445 -0.1964,-0.9923 v -5.6438 q 0,-0.2274 0.1447,-0.3721 0.1447,-0.1447 0.3721,-0.1447 0.2274,0 0.3721,0.1447 0.1447,0.1447 0.1447,0.3721 v 5.6438 q 0,0.3824 0.1448,0.6305 0.1447,0.2481 0.3721,0.2481 h 0.2584 q 0.2067,0 0.3308,0.1447 0.1343,0.1447 0.1343,0.3721 0,0.2274 -0.1964,0.3721 -0.1964,0.1448 -0.5065,0.1448 z"
         id="path9338"
         style="fill:#376d91;fill-opacity:1" />
      <path
         d="m 1492.2631,1828.5627 q -0.2274,0 -0.3824,-0.1448 -0.1448,-0.155 -0.1448,-0.3824 v -4.5998 q 0,-0.2377 0.1448,-0.3825 0.155,-0.1447 0.3824,-0.1447 0.2378,0 0.3825,0.1447 0.1447,0.1448 0.1447,0.3825 v 4.5998 q 0,0.2274 -0.1447,0.3824 -0.1447,0.1448 -0.3825,0.1448 z m 0,-6.5741 q -0.2791,0 -0.4858,-0.1964 -0.1964,-0.2068 -0.1964,-0.4858 0,-0.2791 0.1964,-0.4755 0.2067,-0.2068 0.4858,-0.2068 0.2791,0 0.4755,0.2068 0.2067,0.1964 0.2067,0.4755 0,0.279 -0.2067,0.4858 -0.1964,0.1964 -0.4755,0.1964 z"
         id="path9340"
         style="fill:#376d91;fill-opacity:1" />
      <path
         d="m 1497.3177,1822.8672 q 0.8166,0 1.4575,0.3721 0.6512,0.3618 1.0129,1.013 0.3722,0.6512 0.3722,1.4885 v 2.2327 q 0,0.8166 -0.3618,1.4884 -0.3618,0.6719 -1.0233,1.0544 -0.6513,0.3928 -1.4782,0.3928 -0.7442,0 -1.3851,-0.2998 -0.6409,-0.2894 -1.075,-0.8373 -0.1137,-0.1447 -0.1137,-0.2894 0,-0.2171 0.2171,-0.3721 0.1447,-0.093 0.2894,-0.093 0.2584,0 0.4238,0.217 0.2791,0.3618 0.7029,0.5479 0.4238,0.1964 0.9613,0.1964 0.5065,0 0.9199,-0.2481 0.4135,-0.2378 0.6616,-0.7132 0.2481,-0.4652 0.2481,-1.1164 v -0.5065 q -0.3205,0.5685 -0.8476,0.889 -0.5272,0.3204 -1.1887,0.3204 -0.7649,0 -1.3748,-0.3618 -0.5995,-0.3721 -0.9406,-1.0233 -0.3308,-0.6512 -0.3308,-1.4781 0,-0.8373 0.3618,-1.4885 0.3618,-0.6512 1.013,-1.013 0.6512,-0.3721 1.4781,-0.3721 z m 0,4.8065 q 0.5272,0 0.9406,-0.2481 0.4238,-0.2481 0.6512,-0.6822 0.2378,-0.4445 0.2378,-1.0026 0,-0.5582 -0.2378,-1.0027 -0.2274,-0.4445 -0.6512,-0.6925 -0.4134,-0.2481 -0.9406,-0.2481 -0.5272,0 -0.951,0.2481 -0.4134,0.248 -0.6512,0.6925 -0.2377,0.4445 -0.2377,1.0027 0,0.5581 0.2377,1.0026 0.2378,0.4341 0.6512,0.6822 0.4238,0.2481 0.951,0.2481 z"
         id="path9342"
         style="fill:#376d91;fill-opacity:1" />
      <path
         d="m 1506.8067,1825.6477 q 0,0.1964 -0.1344,0.3308 -0.1344,0.124 -0.3411,0.124 h -3.9279 q 0.1137,0.7236 0.6512,1.1681 0.5478,0.4445 1.3334,0.4445 0.3101,0 0.6409,-0.1138 0.3411,-0.1137 0.5582,-0.279 0.1447,-0.1137 0.3411,-0.1137 0.1964,0 0.3101,0.1033 0.186,0.1551 0.186,0.3515 0,0.186 -0.1654,0.3101 -0.3514,0.2791 -0.8786,0.4548 -0.5168,0.1757 -0.9923,0.1757 -0.8476,0 -1.5195,-0.3618 -0.6718,-0.3721 -1.0543,-1.0233 -0.3721,-0.6512 -0.3721,-1.4781 0,-0.827 0.3514,-1.4782 0.3618,-0.6615 0.9923,-1.0233 0.6409,-0.3721 1.4472,-0.3721 0.7959,0 1.3747,0.3514 0.5789,0.3515 0.889,0.982 0.3101,0.6305 0.3101,1.4471 z m -2.5738,-1.8916 q -0.7546,0 -1.2301,0.4135 -0.4651,0.4135 -0.5892,1.106 h 3.4421 q -0.093,-0.6925 -0.5168,-1.106 -0.4238,-0.4135 -1.106,-0.4135 z"
         id="path9344"
         style="fill:#376d91;fill-opacity:1" />
      <path
         d="m 1510.962,1822.8568 q 0.7132,0 1.2817,0.3101 0.5685,0.3101 0.889,0.9097 0.3204,0.5892 0.3204,1.4264 v 2.5428 q 0,0.2274 -0.155,0.3825 -0.1448,0.1447 -0.3722,0.1447 -0.2274,0 -0.3824,-0.1447 -0.1447,-0.1551 -0.1447,-0.3825 v -2.5428 q 0,-0.8372 -0.4548,-1.261 -0.4445,-0.4342 -1.1888,-0.4342 -0.4341,0 -0.7959,0.1757 -0.3514,0.1758 -0.5581,0.4755 -0.1964,0.2998 -0.1964,0.6719 v 2.9149 q 0,0.2274 -0.1448,0.3825 -0.1447,0.1447 -0.3824,0.1447 -0.2274,0 -0.3825,-0.1447 -0.1447,-0.1551 -0.1447,-0.3825 v -4.6101 q 0,-0.2377 0.1447,-0.3825 0.1551,-0.1447 0.3825,-0.1447 0.2377,0 0.3824,0.1447 0.1448,0.1448 0.1448,0.3825 v 0.1137 q 0.3307,-0.3308 0.7855,-0.5065 0.4549,-0.1861 0.9717,-0.1861 z"
         id="path9346"
         style="fill:#376d91;fill-opacity:1" />
      <path
         d="m 1517.7635,1828.604 q -0.8166,0 -1.4678,-0.3721 -0.6512,-0.3721 -1.0234,-1.0233 -0.3617,-0.6616 -0.3617,-1.4678 0,-0.827 0.3514,-1.4782 0.3618,-0.6615 1.0026,-1.0233 0.6409,-0.3721 1.4472,-0.3721 1.2197,0 2.0259,0.9303 0.1034,0.1137 0.1034,0.2687 0,0.2274 -0.2274,0.3825 -0.1034,0.072 -0.2377,0.072 -0.2378,0 -0.4032,-0.186 -0.2584,-0.2791 -0.5685,-0.4031 -0.2997,-0.1344 -0.6925,-0.1344 -0.7959,0 -1.2921,0.5375 -0.4962,0.5271 -0.4962,1.4058 0,0.5581 0.2274,1.0026 0.2378,0.4341 0.6513,0.6822 0.4238,0.2481 0.9613,0.2481 0.7028,0 1.137,-0.3618 0.1964,-0.1447 0.3824,-0.1447 0.1447,0 0.2688,0.093 0.1964,0.1654 0.1964,0.3722 0,0.155 -0.1241,0.279 -0.7442,0.6926 -1.8605,0.6926 z"
         id="path9348"
         style="fill:#376d91;fill-opacity:1" />
      <path
         d="m 1526.4875,1825.6477 q 0,0.1964 -0.1343,0.3308 -0.1344,0.124 -0.3411,0.124 h -3.9279 q 0.1137,0.7236 0.6512,1.1681 0.5478,0.4445 1.3334,0.4445 0.3101,0 0.6408,-0.1138 0.3412,-0.1137 0.5582,-0.279 0.1447,-0.1137 0.3411,-0.1137 0.1964,0 0.3101,0.1033 0.1861,0.1551 0.1861,0.3515 0,0.186 -0.1654,0.3101 -0.3514,0.2791 -0.8786,0.4548 -0.5168,0.1757 -0.9923,0.1757 -0.8476,0 -1.5195,-0.3618 -0.6719,-0.3721 -1.0543,-1.0233 -0.3722,-0.6512 -0.3722,-1.4781 0,-0.827 0.3515,-1.4782 0.3618,-0.6615 0.9923,-1.0233 0.6409,-0.3721 1.4471,-0.3721 0.7959,0 1.3748,0.3514 0.5788,0.3515 0.8889,0.982 0.3101,0.6305 0.3101,1.4471 z m -2.5738,-1.8916 q -0.7545,0 -1.23,0.4135 -0.4652,0.4135 -0.5892,1.106 h 3.4421 q -0.093,-0.6925 -0.5169,-1.106 -0.4238,-0.4135 -1.106,-0.4135 z"
         id="path9350"
         style="fill:#376d91;fill-opacity:1" />
    </g>
  </g>
</svg>
